<?xml version="1.0" encoding="utf-8"?>
<!-- Generator: Adobe Illustrator 26.0.3, SVG Export Plug-In . SVG Version: 6.00 Build 0)  -->
<svg version="1.1" id="Layer_1" xmlns="http://www.w3.org/2000/svg" xmlns:xlink="http://www.w3.org/1999/xlink" x="0px" y="0px"
	 viewBox="0 0 1920 1243.6" style="enable-background:new 0 0 1920 1243.6;" xml:space="preserve">
<style type="text/css">
	.st0{fill:#F3F2FB;}
	.st1{fill:#265646;}
	.st2{fill:#0B1737;}
	.st3{fill:#FFFFFF;stroke:#2E2399;stroke-width:3;}
	.st4{fill:#FFFFFF;}
	.st5{fill:#2E2399;}
	.st6{fill:#A02517;stroke:#2E2399;}
</style>
<g id="Layer_1_00000159465978727560173710000011311051904875043716_">
</g>
<g id="Layer_2_00000073679411921310213560000017559867295019479978_">
</g>
<g id="Layer_3">
</g>
<g id="Layer_5">
	<rect x="-116" y="-23" class="st0" width="2334.1" height="1389.5"/>
	<g>
		<g>
			<g>
				<g>
					<g>
						<g>
							<g>
								<g>
									<g>
										<path class="st1" d="M-19.2,972.9L-19.2,972.9l13,15.3c-0.2,0.5-0.4,1.1-0.6,1.8c-0.4,0.9-0.9,1.9-1.6,3
											c-1.6,2.5-3.2,4.2-5,5.8c-1.2,1.1-2.7,2.5-4.5,3.9s-3.9,3-6.3,4.6l0,0c-2.2,1.3-4.4,2.4-6.6,3.3c-2.2,0.9-4.4,1.5-6.5,2
											c-1.4,0.3-3.6,0.7-6.6,1.5c-1.5,0.4-3.2,0.8-5,1.3s-3.8,1-6,1.7c-0.1,0-0.2,0.1-0.3,0.1c-2.3,0.7-4.2,1.4-5.6,2
											c-1.5,0.5-2.5,0.9-2.8,1c-2.9,1.1-5.6,2.4-8,3.6c-1.2,0.6-2.3,1.2-3.4,1.8c-1.1,0.6-2.1,1.1-3,1.6c-3.6,2-5.8,3.5-5.8,3.5
											c-1.5,1-2.8,2.1-4.1,3.1c-1.3,1-2.5,2-3.6,2.9c-2.2,1.9-4,3.8-5.7,5.5l-7.4-14.3c-0.2-0.2-0.3-0.3-0.5-0.5
											c0.1-0.1,0.1-0.1,0.2-0.2c3.5-3.4,6.3-6,8.9-8.1c2.5-2.3,4.7-4,7.1-5.6l0.1-0.1l0,0c1.5-1,3.1-2,4.9-3.1
											c1.8-1.1,3.7-2.3,5.8-3.4c2.1-1.1,4.5-2.1,7-3c2.5-1,5.2-1.8,8.2-2.4c3.2-0.7,5.4-0.8,7.7-1.1c2.3-0.3,4.6-0.8,8.2-2
											c2.4-0.9,4.6-1.8,6.6-2.9c2-1.1,3.7-2.1,5.1-3.1c2.9-1.9,4.6-3.4,4.6-3.4c1.3-1.1,2.4-2.3,3.5-3.5c1-1.2,2-2.4,2.8-3.6
											c1.7-2.3,3-4.6,4-6.6c0.3-0.6,0.5-1.2,0.8-1.8c0,0,0,0,0-0.1C-19.3,973.4-19.2,973.2-19.2,972.9z"/>
										<path class="st1" d="M-57.7,1006.2c2-0.1,4.1-0.2,6.1-0.4l6.1-0.6c3.3-0.3,6.6-0.3,9.8,0c3.3,0.3,6.4,0.8,9.5,1.6
											c6.2,1.6,12.2,4.3,17.5,7.9c10.6,7.3,18.6,18.4,20.3,32.4l-6.8,1.4c-2.3,0.5-4.5,0.9-6.8,1.3c-7.3,1.2-14.3,0.9-20.7-0.8
											c-6.4-1.8-12.2-4.9-17.1-9C-49.7,1031.8-56,1019.6-57.7,1006.2L-57.7,1006.2z"/>
									</g>
								</g>
								<g>
									<path class="st2" d="M-34.6,1016.4c3.7,5.2,8.2,9.6,13.3,13.1s11,6.1,17.3,7.4c-1.7,0.2-3.4,0.3-5.1,0.2
										c-1.7-0.1-3.4-0.4-5-0.8c-3.2-0.9-6.3-2.3-9-4.2C-28.6,1028.3-32.7,1022.7-34.6,1016.4z"/>
								</g>
							</g>
							<g>
								<g>
									<g>
										<path class="st1" d="M-13.7,962.6c1-1.7,1.7-3.1,3.2-5.8l12,11.8c-0.3,0.5-0.5,1.1-0.7,1.6c-1.8,3.9-3.4,7.5-4.6,10.9
											c-1.2,3.3-2.2,6.4-2.9,9l-13.6-14.7c0.3-0.5,0.5-1.1,0.8-1.7c0,0,0-0.1,0.1-0.1c0.1-0.2,0.2-0.4,0.3-0.6
											C-17.7,970-15.9,966.5-13.7,962.6z"/>
										<path class="st1" d="M-34.5,933.5l23.9,23.3C-21,951.6-29.1,943.1-34.5,933.5z"/>
									</g>
								</g>
							</g>
						</g>
					</g>
					<g>
						<g>
							<g>
								<g>
									<g>
										<path class="st1" d="M55.7,879.3L55.7,879.3l16.7,11.1c0,0.5-0.1,1.1-0.1,1.9c-0.1,1-0.3,2.1-0.6,3.3
											c-0.8,2.8-1.9,4.8-3.2,6.9c-0.8,1.4-1.9,3-3.2,4.9s-2.9,3.9-4.7,6.2l0,0c-3.5,3.6-7.3,6.8-10.9,8.8
											c-1.2,0.7-3.2,1.7-5.9,3.3c-1.3,0.8-2.8,1.7-4.3,2.7c-1.6,1-3.4,2.1-5.2,3.4c-0.1,0.1-0.2,0.1-0.3,0.2
											c-3.9,2.7-6.6,4.9-7.1,5.4c-4.8,3.9-8.8,7.9-11.5,11c-2.9,3-4.5,5.1-4.5,5.1c-1.1,1.4-2.1,2.8-2.9,4.2
											c-0.9,1.4-1.7,2.7-2.4,3.9c-1.5,2.5-2.6,4.9-3.7,7l-11.7-11.3c-0.2-0.1-0.4-0.2-0.6-0.3c0-0.1,0.1-0.1,0.1-0.2
											c1.2-2.1,2.2-4.1,3.2-5.8c0.5-0.9,1-1.7,1.4-2.5c0.4-0.8,0.9-1.6,1.3-2.3c1.7-2.9,3.3-5.3,5.1-7.5l0.1-0.1l0,0
											c0.6-0.7,1.2-1.4,1.8-2.1c0.6-0.8,1.2-1.6,1.9-2.4c1.4-1.6,2.9-3.3,4.6-5c3.5-3.3,7.5-6.8,12.9-9.8c2.9-1.6,4.9-2.4,7-3.4
											s4.2-2.1,7.3-4.3c1-0.7,2-1.5,2.9-2.3s1.7-1.6,2.5-2.4c1.6-1.6,3-3.1,4.1-4.4c1.1-1.3,2-2.5,2.6-3.3s0.9-1.3,0.9-1.3
											c1.8-2.9,3.1-5.8,4-8.5c1-2.7,1.6-5.2,2-7.5c0.1-0.7,0.2-1.3,0.3-1.9c0,0,0,0,0-0.1C55.7,879.8,55.7,879.6,55.7,879.3z"/>
										<path class="st1" d="M0.8,938.7L0.8,938.7c0.2,3.1,0,6.3-0.6,9.5c-0.4,2-0.7,4-1.1,6l-1.3,6c-2.7-0.7-5.2-1.7-7.7-2.9
											c-0.2-0.1-0.4-0.2-0.6-0.3c0-0.1,0.1-0.1,0.1-0.2l-24.5-23.9c-2.6-4.8-4.6-9.9-5.7-15c-1.2-5.1-1.7-10.4-1.2-15.4
											c0.4-3.5,0.5-7.2,0.7-10.8c11,3.2,21.2,9.3,28.7,17.5c3.8,4.1,6.9,8.7,9.2,13.7c1.1,2.5,2.1,5.1,2.7,7.7
											c0.3,1.3,0.6,2.7,0.8,4C0.6,936,0.7,937.3,0.8,938.7z"/>
										<path class="st1" d="M28.3,922.3c3.8-1.4,7.6-3,11.4-4.6c3-1.3,6.2-2.2,9.4-2.9c3.1-0.7,6.3-1.1,9.5-1.2
											c6.4-0.2,12.9,0.7,19,2.7s11.8,5.1,16.7,9.3c2.5,2.1,4.8,4.5,6.8,7.2s3.8,5.6,5.2,8.8l0,0c-4,2.1-8.1,4.2-12.1,6.2
											c-6.5,3.2-13.3,4.8-19.8,5c-6.6,0.2-13.1-1.2-18.9-3.6C43.6,944.3,33.9,934.6,28.3,922.3L28.3,922.3z"/>
									</g>
								</g>
								<g>
									<path class="st2" d="M-30.1,908c3.6,11.2,10.3,21.9,20,30.1c-6-2.5-11-7.2-14.6-12.7C-28.3,919.9-30.3,913.7-30.1,908z"/>
								</g>
								<g>
									<path class="st2" d="M53.4,925.3c10.1,7.7,22.2,11.8,35.1,10.8c-3.1,1.4-6.4,2.1-9.7,2.2c-3.3,0.1-6.7-0.4-9.8-1.4
										C62.6,934.9,57,930.8,53.4,925.3z"/>
								</g>
							</g>
							<g>
								<g>
									<g>
										<path class="st1" d="M58.2,867.9c0.4-1.9,0.8-3.4,1.5-6.4l14.8,8.1c-0.1,0.6-0.2,1.2-0.3,1.7c-0.4,2.1-0.6,4.1-0.9,6.1
											c-0.2,2-0.4,3.8-0.6,5.6c-0.3,3.5-0.4,6.7-0.3,9.4L55.3,882c0.1-0.6,0.2-1.2,0.3-1.8v-0.1c0-0.2,0.1-0.5,0.1-0.7
											C56.4,876.1,57.2,872.3,58.2,867.9z"/>
										<path class="st1" d="M30.4,845.3l29.2,16.1C48.2,859.2,38.1,853.2,30.4,845.3z"/>
									</g>
								</g>
							</g>
						</g>
						<g>
							<g>
								<g>
									<g>
										<path class="st1" d="M104.9,770.1L104.9,770.1l18.7,7.1c0.1,0.5,0.2,1.1,0.3,1.8c0.1,1,0.2,2.1,0.1,3.4
											c-0.1,2.9-0.8,5.1-1.5,7.4c-0.5,1.5-1.2,3.4-2,5.5c-0.4,1.1-0.9,2.2-1.4,3.3c-0.5,1.2-1.1,2.4-1.7,3.7l0,0
											c-2.6,4.3-5.5,8.2-8.6,11c-1,0.9-2.7,2.4-4.9,4.5s-4.8,4.8-7.8,8.2c-0.1,0.1-0.1,0.2-0.2,0.2c-3.1,3.6-5.2,6.3-5.6,7
											c-1.8,2.5-3.4,4.9-4.8,7.2c-1.4,2.3-2.6,4.4-3.5,6.3c-0.9,1.8-1.7,3.3-2.2,4.4c-0.5,1.1-0.8,1.7-0.8,1.7
											c-1.4,3.3-2.3,6.4-3,9.2s-1.3,5.4-1.7,7.7l-14.1-7.8c-0.2,0-0.4-0.1-0.7-0.1c0-0.1,0-0.1,0-0.2c0.6-2.4,1.1-4.5,1.6-6.4
											s0.9-3.7,1.4-5.3c0.9-3.2,1.8-5.9,3.1-8.5c0,0,0-0.1,0.1-0.1l0,0c1.4-3.3,3.1-7.2,5.6-11.3s5.6-8.5,10.2-12.7
											c4.7-4.5,7.1-5.1,12.1-10.9c3.2-3.9,5.5-8,7.1-11.1c0.8-1.5,1.4-2.8,1.7-3.8c0.4-0.9,0.6-1.5,0.6-1.5
											c2.1-6.5,2.6-12.4,2.3-17c0-0.7-0.1-1.3-0.1-1.9c0,0,0,0,0-0.1C104.9,770.6,104.9,770.4,104.9,770.1z"/>
										<path class="st1" d="M65.5,841.1L65.5,841.1c0.9,3,1.6,6.1,1.8,9.4c0.3,4,0.7,8.1,0.9,12.2c-2.8,0-5.5-0.3-8.2-0.7
											c-0.2,0-0.4-0.1-0.7-0.1c0-0.1,0-0.1,0-0.2l-30-16.6c-3.8-4-7-8.4-9.4-13.2c-2.5-4.8-4.2-9.8-5-14.9
											c-0.6-3.7-1.2-7.3-1.9-10.9c11.5,0.2,22.9,3.6,32.2,9.7C54.7,821.7,62,830.5,65.5,841.1z"/>
										<path class="st1" d="M88.1,818.3l10-7.1c1.3-1,2.7-1.9,4.1-2.7c1.4-0.8,2.8-1.6,4.2-2.3c2.9-1.4,5.9-2.5,9-3.3
											s6.3-1.4,9.5-1.7s6.4-0.3,9.5,0c12.7,1.2,25.2,6.9,33.9,17.9l-10.2,8.6c-2.7,2.3-5.7,4.1-8.7,5.7c-3,1.5-6.1,2.7-9.3,3.5
											c-6.3,1.7-12.8,1.9-19.2,0.9C108.3,835.8,96.5,828.9,88.1,818.3L88.1,818.3z"/>
									</g>
								</g>
								<g>
									<path class="st2" d="M27.8,819.2c3.2,5.1,7,9.7,11.5,13.9c4.5,4.1,9.7,7.6,15.4,10.3c-6.4-0.9-12.6-4.1-17.4-8.5
										c-2.4-2.2-4.5-4.7-6.1-7.4C29.6,824.8,28.4,822,27.8,819.2z"/>
								</g>
								<g>
									<path class="st2" d="M113.2,815.3c5.8,2.6,11.9,4.1,18.1,4.6c6.1,0.4,12.3-0.2,18.5-2.1c-5.4,4-12.1,5.6-18.7,5.1
										C124.4,822.3,118,819.7,113.2,815.3z"/>
								</g>
							</g>
							<g>
								<g>
									<g>
										<path class="st1" d="M104.8,758.4c0-2,0.1-3.5,0.2-6.6l16.2,4.9c0,0.6,0.1,1.2,0.1,1.7c0.2,4.2,0.6,8.1,1.1,11.6
											s1.1,6.6,1.7,9.2l-19-6.3c0-0.6-0.1-1.2-0.1-1.9v-0.1c0-0.2,0-0.5,0-0.7C104.8,766.9,104.8,762.9,104.8,758.4z"/>
										<path class="st1" d="M72.9,742.2l31.9,9.6C93.3,752.1,82.1,748.4,72.9,742.2z"/>
									</g>
								</g>
							</g>
						</g>
					</g>
					<g>
						<g>
							<g>
								<g>
									<g>
										<path class="st1" d="M139.5,654.4L139.5,654.4l18.6,7.3c0.1,0.5,0.2,1.1,0.3,1.7c0.1,0.9,0.2,2,0.2,3.2
											c0,2.7-0.6,4.8-1.2,7c-0.9,2.9-2.2,7-4.2,12l0,0c-2.1,4.2-4.8,8.1-7.4,11.1c-1.8,2-6.1,6.4-10.9,13.7
											c-0.1,0.1-0.1,0.2-0.2,0.3c-2.5,3.9-4.1,6.9-4.5,7.6c-5.5,10.8-7.7,21-7.7,21c-1.4,7-1.3,12.7-1.1,17.4l-15.5-4.6
											c-0.2,0-0.4,0-0.7,0c0-0.1,0-0.1,0-0.2c0.2-9.8,0.5-15.7,1.9-21.3c0-0.1,0-0.1,0-0.2l0,0c1.7-7,4.1-17,11.9-26.7
											c4.2-5.2,6.4-6,10.7-12.4c2.8-4.2,4.9-8.4,6.2-11.6c1.4-3.2,2-5.3,2-5.3c1.8-6.5,2.1-12.4,1.9-17c0-0.7-0.1-1.3-0.1-1.9
											c0,0,0,0,0-0.1C139.5,654.8,139.5,654.6,139.5,654.4z"/>
										<path class="st1" d="M107,730.2L107,730.2c1.5,2.8,2.7,5.8,3.6,8.9c1.1,3.9,2.2,7.8,3.3,11.8c-2.7,0.6-5.4,0.9-8.1,1
											c-0.2,0-0.4,0-0.7,0c0-0.1,0-0.1,0-0.2l-32.8-9.9c-4.5-3.2-8.5-7-11.9-11.3c-1.7-2.2-3.1-4.5-4.4-6.9s-2.3-5-3.1-7.7
											l-3.5-11.5C72.6,699.3,96.5,710.5,107,730.2z"/>
										<path class="st1" d="M125.8,703.7l9-8.2c9.7-8.8,22.5-12.5,35.1-11.7c12.7,0.8,25.3,6.2,35,15.2l0,0c-3,2.4-6,4.9-9,7.4
											c-9.6,8.1-22.2,12.3-34.9,11.9C148.4,718,135.6,713.1,125.8,703.7L125.8,703.7z"/>
									</g>
								</g>
								<g>
									<path class="st2" d="M66,715.4c7.9,9.4,18.6,16.1,30.9,19.2C84,735.5,70.3,727,66,715.4z"/>
								</g>
								<g>
									<path class="st2" d="M150.3,698c12.2,3.9,24.7,3.7,36.4,0.2C177,705.5,160.8,705.7,150.3,698z"/>
								</g>
							</g>
							<g>
								<g>
									<g>
										<path class="st1" d="M139.8,642.5c0.1-2,0.3-3.6,0.6-6.7l15.8,6c0,0.6,0,1.1,0,1.7c-0.1,8.2,1.2,15.1,2.4,20l-19-6.4
											c0-0.6,0-1.2-0.1-1.9v-0.1c0-0.2,0-0.5,0-0.7C139.4,651.1,139.4,647.1,139.8,642.5z"/>
										<path class="st1" d="M109.1,623.8l31.2,11.9C128.6,635.3,117.6,631.2,109.1,623.8z"/>
									</g>
								</g>
							</g>
						</g>
						<g>
							<g>
								<g>
									<g>
										<path class="st1" d="M199.3,550.1L199.3,550.1c4.4,5.1,8.8,10,13.3,15c-0.1,0.5-0.3,1-0.4,1.6c-0.3,0.8-0.6,1.7-1.1,2.7
											c-1,2.3-2.3,3.8-3.6,5.4c-1.7,2.1-4.4,5-7.8,8.5l0,0c-1.7,1.4-3.3,2.8-5,4c-0.9,0.6-1.7,1.2-2.6,1.7
											c-0.8,0.5-1.7,1-2.5,1.5c-1.1,0.6-3,1.5-5.4,3c-2.3,1.5-5.3,3.5-8.4,6.4c-0.1,0.1-0.1,0.1-0.2,0.2c-3.4,3-5.5,5.6-6,6.1
											c-3.8,4.5-6.6,9.3-8.3,12.9c-0.9,1.8-1.6,3.3-2,4.3c-0.4,1.1-0.6,1.7-0.6,1.7c-1.1,3.3-1.8,6.4-2.2,9.2s-0.5,5.3-0.6,7.6
											l-15.1-5.8c-0.2,0-0.4,0-0.7,0c0-0.1,0-0.1,0-0.2c1-10,2.2-16,4.5-21.7c0-0.1,0-0.1,0.1-0.2l0,0c0.7-1.7,1.5-3.7,2.5-5.7
											c0.9-2,2.1-4.2,3.5-6.3c2.7-4.3,6.4-8.8,11.5-12.7c2.7-2.1,4.7-3.1,6.8-4.3c2-1.2,4.2-2.4,7.2-4.8c1-0.8,1.9-1.6,2.9-2.3
											c0.9-0.8,1.8-1.5,2.6-2.3c1.6-1.5,3.1-2.9,4.3-4.1c1.2-1.2,2.1-2.3,2.8-3s1-1.1,1-1.1c2.1-2.6,3.7-5.2,5.2-7.7
											c0.7-1.2,1.4-2.4,1.9-3.6c0.6-1.2,1.1-2.2,1.6-3.3c0.3-0.6,0.5-1.2,0.8-1.8c0,0,0,0,0-0.1
											C199.2,550.6,199.3,550.3,199.3,550.1z"/>
										<path class="st1" d="M144.6,614L144.6,614c1,3.1,1.8,6.3,2.3,9.6c0.6,4.1,1.3,8.1,2,12.1c-2.7,0.3-5.5,0.5-8.2,0.4
											c-0.2,0-0.4,0-0.7,0c0-0.1,0-0.1,0-0.2l-32-12.2c-4.2-3.7-7.8-8.3-10.3-13.6c-1.3-2.6-2.4-5.4-3.2-8.4s-1.3-6.1-1.5-9.4
											c-0.1-2.4-0.2-4.7-0.3-7.1c-0.1-2.4-0.2-4.8-0.1-7.2c6.3-0.9,12.2-0.4,17.7,1.2c5.5,1.6,10.6,4.2,15,7.6
											C134.4,593.5,141,603.2,144.6,614z"/>
										<path class="st1" d="M168.6,591.3c3.7-1.8,7.2-3.7,11-5.2c1.5-0.6,3-1.2,4.4-1.6c1.5-0.5,3-0.8,4.6-1
											c3.1-0.5,6.1-0.6,9.2-0.3c6.1,0.6,12,2.5,17.6,5.6c5.5,3,10.7,7.1,15.2,11.6c4.6,4.6,8.6,9.6,12.1,14.9l0,0
											c-1.5,0.2-3,0.3-4.5,0.5l-4.6,0.8c-4.9,1-10.5,1.3-16.4,1c-5.9-0.4-12-1.4-18-3.4C187.3,610.2,175.7,603,168.6,591.3
											L168.6,591.3z"/>
									</g>
								</g>
								<g>
									<path class="st2" d="M106.5,592.8c2.8,5.9,6.7,11,11.4,15c4.6,4.1,10,7.3,16,9.6c-6.6-0.2-13-2.8-18-7.1
										c-2.5-2.2-4.6-4.8-6.3-7.7c-0.8-1.5-1.5-3-2-4.7C107,596.3,106.7,594.6,106.5,592.8z"/>
								</g>
								<g>
									<path class="st2" d="M193.5,593.3c5.2,3.7,10.7,6.6,16.4,8.7c5.6,2.2,11.4,3.8,16.9,4.7c-2.5,0.4-5.3,0.4-8.3-0.1
										c-3-0.4-6-1.2-9.1-2.3C203.3,602,197.4,598.4,193.5,593.3z"/>
								</g>
							</g>
							<g>
								<g>
									<g>
										<path class="st1" d="M205.4,539.7c1.2-1.7,2.1-3,4.1-5.6l10.3,13.4c-0.3,0.5-0.6,0.9-0.8,1.4c-1,1.7-1.9,3.4-2.7,5
											c-0.8,1.6-1.4,3.3-1.9,4.8c-1.1,3-1.7,5.8-2.1,8.2l-14.1-14.3c0.2-0.5,0.5-1.1,0.8-1.7c0,0,0-0.1,0.1-0.1
											c0.1-0.2,0.2-0.4,0.3-0.6c0.4-0.7,0.7-1.6,1.2-2.4s0.9-1.6,1.4-2.5c0.5-0.9,1.1-1.8,1.6-2.7
											C204.2,541.6,204.8,540.7,205.4,539.7z"/>
										<path class="st1" d="M189.1,507.6l20.4,26.4C199.7,527.7,192.1,518.7,189.1,507.6z"/>
									</g>
								</g>
							</g>
						</g>
					</g>
				</g>
			</g>
		</g>
		<g>
			<g>
				<g id="_x3C_Radial_Repeat_x3E__00000160159645659649464010000016470989652143851945_">
					<path class="st3" d="M140.1,483.6l3.7,7.4c17.4,35.3,2.9,78.1-32.4,95.5l-16.3,8.1C59.8,612,17,597.5-0.4,562.2l-3.7-7.4
						c-17.4-35.3-2.9-78.1,32.4-95.5l16.3-8.1C79.9,433.8,122.6,448.3,140.1,483.6z"/>
					<g>
						<path class="st4" d="M117.3,492.1c-3.5-1.3-28.2-10.3-53.6,3.7c-24.6,13.5-30.7,37.9-31.6,41.7"/>
						<path class="st5" d="M117.3,492.1c-24.1-7-50.4-1.7-68.1,16.6c-7.8,8.1-13.6,18-17.1,28.8c1.6-9,5.4-17.7,10.8-25.1
							C59.4,488.8,91.2,480.6,117.3,492.1L117.3,492.1z"/>
					</g>
					<g>
						<path class="st4" d="M20.6,566.9c3.5,1.3,28.2,10.3,53.6-3.7c24.6-13.5,30.7-37.9,31.6-41.7"/>
						<path class="st5" d="M20.6,566.9c24.1,7,50.4,1.7,68.1-16.6c7.8-8.1,13.6-18,17.1-28.8c-1.6,9-5.4,17.7-10.8,25.1
							C78.5,570.1,46.7,578.4,20.6,566.9L20.6,566.9z"/>
					</g>
				</g>
				<g id="_x3C_Radial_Repeat_x3E__00000170972182622567228160000005794550266162335392_">
					<path class="st3" d="M141.4,441.2l-0.9,8.2c-4.4,39.1-39.7,67.3-78.9,62.9l-18.1-2c-39.1-4.4-67.3-39.7-62.9-78.9l0.9-8.2
						c4.4-39.1,39.7-67.3,78.9-62.9l18.1,2C117.7,366.8,145.9,402.1,141.4,441.2z"/>
					<g>
						<path class="st4" d="M117.7,436c-2.2-3-18.2-23.9-47.1-25.9c-27.9-2-46.3,15.3-49.1,18"/>
						<path class="st5" d="M117.7,436c-16.5-19-41.5-28.7-66.3-22.9c-10.9,2.6-21.2,7.8-29.9,15c6.2-6.8,14.1-11.9,22.7-15.3
							C70.8,402,101.9,412.2,117.7,436L117.7,436z"/>
					</g>
					<g>
						<path class="st4" d="M-4.1,446.7c2.2,3,18.2,23.9,47.1,25.9c27.9,2,46.3-15.3,49.1-18"/>
						<path class="st5" d="M-4.1,446.7c16.5,19,41.5,28.7,66.3,22.9c10.9-2.6,21.2-7.8,29.9-15c-6.2,6.8-14.1,11.9-22.7,15.3
							C42.9,480.7,11.7,470.5-4.1,446.7L-4.1,446.7z"/>
					</g>
				</g>
				<g id="_x3C_Radial_Repeat_x3E__00000052103745658349314850000011879951482674607502_">
					<path class="st3" d="M165.5,406.3l-5.2,6.4c-24.9,30.5-69.8,35.1-100.3,10.2l-14.1-11.5c-30.5-24.9-35.1-69.8-10.2-100.3
						l5.2-6.4c24.9-30.5,69.8-35.1,100.3-10.2l14.1,11.5C185.8,330.9,190.4,375.8,165.5,406.3z"/>
					<g>
						<path class="st4" d="M148.4,389.1c-0.2-3.8-2.4-29.9-25.6-47.3c-22.4-16.7-47.2-12.2-51-11.4"/>
						<path class="st5" d="M148.4,389.1c-3.2-22.2-16.7-43-37.2-52.5c-12.1-5.9-26-7.7-39.4-6.2c8.9-2.3,18.3-2.4,27.4-0.6
							C127.2,335.1,148,360.6,148.4,389.1L148.4,389.1z"/>
					</g>
					<g>
						<path class="st4" d="M40.1,332.3c0.2,3.8,2.4,29.9,25.6,47.3c22.4,16.7,47.2,12.2,51,11.4"/>
						<path class="st5" d="M40.1,332.3c3.2,22.2,16.7,43,37.2,52.5c12.1,5.9,26,7.7,39.4,6.2c-8.9,2.3-18.3,2.4-27.4,0.6
							C61.2,386.2,40.5,360.8,40.1,332.3L40.1,332.3z"/>
					</g>
				</g>
				<g id="_x3C_Radial_Repeat_x3E__00000137814197917808245750000016570034220707282105_">
					<path class="st3" d="M204.7,390l-7.9,2.6c-37.4,12.2-77.7-8.2-89.9-45.6l-5.7-17.4c-12.2-37.4,8.2-77.7,45.6-89.9l7.9-2.6
						c37.4-12.2,77.7,8.2,89.9,45.6l5.7,17.3C262.5,337.5,242.1,377.7,204.7,390z"/>
					<g>
						<path class="st4" d="M199.5,366.2c1.8-3.3,14.2-26.5,4-53.6c-9.8-26.2-33.1-35.8-36.8-37.2"/>
						<path class="st5" d="M199.5,366.2c10.4-22.8,8.9-49.7-6.7-69.8c-6.9-8.9-15.9-16-26-21c8.7,2.8,16.7,7.9,23.4,14.2
							C210.9,309.4,214.6,342,199.5,366.2L199.5,366.2z"/>
					</g>
					<g>
						<path class="st4" d="M139.2,259.9c-1.8,3.3-14.2,26.5-4,53.6c9.8,26.2,33.1,35.8,36.8,37.2"/>
						<path class="st5" d="M139.2,259.9c-10.4,22.8-8.9,49.7,6.7,69.8c6.9,8.9,15.9,16,26,21c-8.7-2.8-16.7-7.9-23.4-14.2
							C127.8,316.7,124.1,284.1,139.2,259.9L139.2,259.9z"/>
					</g>
				</g>
				<g id="_x3C_Radial_Repeat_x3E__00000021098688660170889570000009563343869113295766_">
					<path class="st3" d="M246.4,397.4l-8-2.1c-38.1-9.9-60.9-48.9-51-87l4.6-17.6c9.9-38.1,48.9-60.9,87-51l8,2.1
						c38.1,9.9,60.9,48.9,51,87l-4.6,17.6C323.5,384.5,284.5,407.3,246.4,397.4z"/>
					<g>
						<path class="st4" d="M254.9,374.6c3.3-1.8,26.2-14.6,32.3-42.9c5.9-27.4-8.5-48-10.8-51.2"/>
						<path class="st5" d="M254.9,374.6c21.1-13.6,34.3-37,32.1-62.3c-1-11.2-4.7-22.1-10.6-31.7c5.8,7.1,9.8,15.7,12,24.6
							C295.3,333,280.7,362.4,254.9,374.6L254.9,374.6z"/>
					</g>
					<g>
						<path class="st4" d="M261.7,252.6c-3.3,1.8-26.2,14.6-32.3,42.9c-5.9,27.4,8.5,48,10.8,51.2"/>
						<path class="st5" d="M261.7,252.6c-21.1,13.6-34.3,37-32.1,62.3c1,11.2,4.7,22.1,10.6,31.7c-5.8-7.1-9.8-15.7-12-24.6
							C221.4,294.2,235.9,264.8,261.7,252.6L261.7,252.6z"/>
					</g>
				</g>
				<g id="_x3C_Radial_Repeat_x3E__00000052820748679002173380000010180715807338050738_">
					<path class="st3" d="M277.5,426.2l-5.6-6.1c-26.7-29-24.8-74.1,4.2-100.8l13.4-12.3c29-26.7,74.1-24.8,100.8,4.2l5.6,6.1
						c26.7,29,24.8,74.1-4.2,100.8l-13.4,12.3C349.3,457,304.2,455.1,277.5,426.2z"/>
					<g>
						<path class="st4" d="M297,411.6c3.8,0.3,30,1.9,50.4-18.6c19.8-19.8,18.8-45,18.6-48.9"/>
						<path class="st5" d="M297,411.6c25.1,0,48.9-12.6,60.7-35.1c5.2-10,8-21.1,8.3-32.4c1.1,9.1-0.2,18.5-3.3,27.2
							C353.4,398.4,325.3,415.3,297,411.6L297,411.6z"/>
					</g>
					<g>
						<path class="st4" d="M368.7,312.6c-3.8-0.3-30-1.9-50.4,18.6c-19.8,19.8-18.8,45-18.6,48.9"/>
						<path class="st5" d="M368.7,312.6c-25.1,0-48.9,12.6-60.7,35.1c-5.2,10-8,21.1-8.3,32.4c-1.1-9.1,0.2-18.5,3.3-27.2
							C312.2,325.8,340.4,308.9,368.7,312.6L368.7,312.6z"/>
					</g>
				</g>
				<g id="_x3C_Radial_Repeat_x3E__00000150814003374183999930000007691608824796649653_">
					<path class="st3" d="M288.1,467.2l-1.4-8.2c-6.8-38.8,19.2-75.7,58-82.5l17.9-3.1c38.8-6.8,75.7,19.2,82.5,58l1.4,8.2
						c6.8,38.8-19.2,75.7-58,82.5l-17.9,3.1C331.9,532,294.9,506,288.1,467.2z"/>
					<g>
						<path class="st4" d="M312.4,465.5c3,2.3,24.2,17.8,52.5,11.6c27.4-6,40.1-27.7,42-31.1"/>
						<path class="st5" d="M312.4,465.5c21.2,13.6,47.9,15.9,70.1,3.3c9.8-5.6,18.1-13.5,24.5-22.8c-4,8.2-10.2,15.4-17.4,21.1
							C367,484.9,334.2,483.9,312.4,465.5L312.4,465.5z"/>
					</g>
					<g>
						<path class="st4" d="M426.2,421c-3-2.3-24.2-17.8-52.5-11.6c-27.4,6-40.1,27.7-42,31.1"/>
						<path class="st5" d="M426.2,421c-21.2-13.6-47.9-15.9-70.1-3.3c-9.8,5.6-18.1,13.5-24.5,22.8c4-8.2,10.2-15.4,17.4-21.1
							C371.6,401.6,404.4,402.6,426.2,421L426.2,421z"/>
					</g>
				</g>
				<g id="_x3C_Radial_Repeat_x3E__00000029751901473943497810000016762057204614668713_">
					<path class="st3" d="M274.9,507.5l3.2-7.6c15.3-36.3,57.1-53.4,93.4-38.1l16.8,7.1c36.3,15.3,53.4,57.1,38.1,93.4l-3.2,7.6
						c-15.3,36.3-57.1,53.4-93.4,38.1l-16.8-7.1C276.6,585.6,259.6,543.8,274.9,507.5z"/>
					<g>
						<path class="st4" d="M296.2,519.2c1.3,3.5,10.7,28.1,37.9,38.1c26.3,9.7,48.7-1.6,52.2-3.4"/>
						<path class="st5" d="M296.2,519.2c10.5,22.8,31.7,39.2,57.1,40.7c11.2,0.6,22.5-1.5,32.9-5.9c-7.9,4.7-16.9,7.5-26.1,8.3
							C331.6,565,304.6,546.4,296.2,519.2L296.2,519.2z"/>
					</g>
					<g>
						<path class="st4" d="M416,543.2c-1.3-3.5-10.7-28.1-37.9-38.1c-26.3-9.7-48.7,1.6-52.2,3.4"/>
						<path class="st5" d="M416,543.2c-10.5-22.8-31.7-39.2-57.1-40.7c-11.2-0.6-22.5,1.5-32.9,5.9c7.9-4.7,16.9-7.5,26.1-8.3
							C380.6,497.4,407.6,516,416,543.2L416,543.2z"/>
					</g>
				</g>
				<g id="_x3C_Radial_Repeat_x3E__00000042017062180650945980000006775339333642955939_">
					<path class="st3" d="M241.9,534.2l6.8-4.7c32.5-22.3,76.9-14,99.2,18.4l10.3,15c22.3,32.5,14,76.9-18.4,99.2l-6.8,4.7
						c-32.5,22.3-76.9,14-99.2-18.4l-10.3-15C201.2,600.9,209.5,556.5,241.9,534.2z"/>
					<g>
						<path class="st4" d="M253.6,555.6c-0.8,3.7-6.1,29.4,11.2,52.5c16.8,22.4,41.8,25,45.7,25.3"/>
						<path class="st5" d="M253.6,555.6c-3.5,24.9,5.5,50.2,26.1,65.1c9.1,6.6,19.8,10.9,30.9,12.8c-9.2-0.3-18.3-2.9-26.4-7.1
							C258.6,613.3,245.9,583,253.6,555.6L253.6,555.6z"/>
					</g>
					<g>
						<path class="st4" d="M341.4,640.6c0.8-3.7,6.1-29.4-11.2-52.5c-16.8-22.4-41.8-25-45.7-25.3"/>
						<path class="st5" d="M341.4,640.6c3.5-24.9-5.5-50.2-26.1-65.1c-9.1-6.6-19.8-10.9-30.9-12.8c9.2,0.3,18.3,2.9,26.4,7.1
							C336.3,582.8,349,613.1,341.4,640.6L341.4,640.6z"/>
					</g>
				</g>
				<g id="_x3C_Radial_Repeat_x3E__00000109730418274919932120000001787713681011514756_">
					<path class="st3" d="M199.8,538.9l8.3-0.3c39.4-1.2,72.2,29.8,73.4,69.1l0.6,18.2c1.2,39.4-29.8,72.2-69.1,73.4l-8.3,0.3
						c-39.4,1.2-72.2-29.8-73.4-69.1l-0.6-18.2C129.5,572.9,160.4,540.1,199.8,538.9z"/>
					<g>
						<path class="st4" d="M198,563.1c-2.7,2.6-21.1,21.4-18.9,50.3c2,27.9,21.7,43.6,24.8,46"/>
						<path class="st5" d="M198,563.1c-16.4,19-22.5,45.2-13.2,68.9c4.1,10.5,10.7,19.9,19.1,27.5c-7.6-5.2-13.8-12.3-18.4-20.2
							C171,614.4,176.7,582.1,198,563.1L198,563.1z"/>
					</g>
					<g>
						<path class="st4" d="M225.9,682.1c2.7-2.6,21.1-21.4,18.9-50.3c-2-27.9-21.7-43.6-24.8-46"/>
						<path class="st5" d="M225.9,682.1c16.4-19,22.5-45.2,13.2-68.9c-4.1-10.5-10.7-19.9-19.1-27.5c7.6,5.2,13.8,12.3,18.4,20.2
							C252.9,630.8,247.2,663.1,225.9,682.1L225.9,682.1z"/>
					</g>
				</g>
				<g id="_x3C_Radial_Repeat_x3E__00000147207737035138222770000013409724583454293659_">
					<path class="st3" d="M161.8,520l7.1,4.3c33.8,20.3,44.7,64.1,24.4,97.9l-9.4,15.6c-20.3,33.8-64.1,44.7-97.9,24.4l-7.1-4.3
						c-33.8-20.3-44.7-64.1-24.4-97.9l9.4-15.6C84.2,510.6,128,499.7,161.8,520z"/>
					<g>
						<path class="st4" d="M147.2,539.4c-3.7,0.8-29.3,6.6-43.1,32.1c-13.4,24.6-5.4,48.4-4,52.1"/>
						<path class="st5" d="M147.2,539.4c-22.8,6.7-41.8,24.2-47.6,47.5c-3.1,12-2.7,24.7,0.4,36.7c-3.6-8.5-5-17.8-4.5-27
							C96.8,568,119,543.9,147.2,539.4L147.2,539.4z"/>
					</g>
					<g>
						<path class="st4" d="M106.4,654.6c3.7-0.8,29.3-6.6,43.1-32.1c13.4-24.6,5.4-48.4,4-52.1"/>
						<path class="st5" d="M106.4,654.6c22.8-6.7,41.8-24.2,47.6-47.5c3.1-12,2.7-24.7-0.4-36.7c3.6,8.5,5,17.8,4.5,27
							C156.8,626.1,134.5,650.2,106.4,654.6L106.4,654.6z"/>
					</g>
				</g>
			</g>
			<path class="st6" d="M213,560.7L213,560.7c-50.6,0-91.7-41.1-91.7-91.7l0,0c0-50.6,41.1-91.7,91.7-91.7l0,0
				c50.6,0,91.7,41.1,91.7,91.7l0,0C304.7,519.6,263.7,560.7,213,560.7z"/>
		</g>
	</g>
	<g>
		<g>
			<g>
				<g>
					<g>
						<g>
							<g>
								<g>
									<g>
										<path class="st1" d="M1862.2,1049.8L1862.2,1049.8l17.6-9.5c0.4,0.2,0.9,0.5,1.5,0.9c0.8,0.5,1.6,1.1,2.5,1.9
											c2.1,1.8,3.3,3.5,4.6,5.3c0.8,1.2,1.8,2.8,2.8,4.6c1,1.8,2.3,3.8,3.5,6.1l0,0c1.9,4.2,3.1,8.7,3.8,12.5
											c0.2,1.3,0.5,3.4,1.1,6.3c0.3,1.4,0.6,3,1.1,4.8c0.5,1.7,1.1,3.6,1.8,5.6c0,0.1,0.1,0.2,0.1,0.3c1.6,4.3,3,7.4,3.3,8
											c2.8,5.3,6,9.8,8.5,12.9c2.6,3.1,4.4,4.9,4.4,4.9c1.3,1.2,2.5,2.3,3.8,3.3c1.2,1,2.4,1.8,3.6,2.6c2.4,1.5,4.6,2.7,6.7,3.7
											l-11.6,11.3c-0.1,0.2-0.2,0.4-0.3,0.6c-0.1,0-0.1-0.1-0.2-0.1c-2.2-1.3-4.1-2.5-5.9-3.6c-0.9-0.6-1.7-1.1-2.5-1.6
											s-1.5-1.1-2.2-1.6c-2.8-2.1-5.1-4.1-7.2-6.2l-0.1-0.1l0,0c-0.6-0.7-1.3-1.4-2-2.1c-0.7-0.8-1.4-1.6-2.1-2.4
											c-1.4-1.7-2.9-3.6-4.3-5.7c-2.9-4.1-5.4-9.3-7-15.3c-0.9-3.2-1.1-5.5-1.4-7.8s-0.7-4.7-1.9-8.4c-0.4-1.2-0.8-2.3-1.3-3.5
											c-0.4-1.1-0.8-2.2-1.3-3.2c-0.9-2-1.8-3.9-2.6-5.4c-0.8-1.5-1.5-2.7-2.1-3.6c-0.5-0.8-0.8-1.3-0.8-1.3
											c-1.9-2.8-3.9-5.2-5.9-7.2s-4.1-3.7-5.9-5.1c-0.5-0.4-1-0.8-1.5-1.2c0,0,0,0-0.1,0
											C1862.5,1050.1,1862.3,1050,1862.2,1049.8z"/>
										<path class="st1" d="M1903,1122.5L1903,1122.5c3.2,0.3,6.5,0.9,9.6,1.8c2,0.6,3.9,1.2,5.9,1.7l6,1.5
											c-0.9,2.6-1.9,5.2-3.1,7.6c-0.1,0.2-0.2,0.4-0.3,0.6c-0.1,0-0.1-0.1-0.2-0.1l-24.5,23.9c-5.2,2.2-10.8,3.5-16.6,3.7
											c-5.9,0.2-11.8-0.8-17.9-3c-4.3-1.5-8.5-3.2-12.8-5c3.8-11.8,11.8-20.5,21.5-26.1c4.9-2.8,10.2-4.8,15.7-5.9
											c2.7-0.6,5.5-0.9,8.3-1.1c1.4-0.1,2.8-0.1,4.2,0C1900.1,1122.3,1901.6,1122.3,1903,1122.5z"/>
									</g>
								</g>
								<g>
									<path class="st2" d="M1868,1148.6c13-0.6,24.5-6,33.6-14.9c-2.9,5.9-8,10.6-14,13.4
										C1881.5,1149.8,1874.5,1150.5,1868,1148.6z"/>
								</g>
							</g>
							<g>
								<g>
									<g>
										<path class="st1" d="M1853.3,1041.9c-1.4-1.4-2.5-2.5-4.7-4.8l14.8-8.1c0.4,0.4,0.8,0.7,1.2,1.1c1.5,1.4,3.1,2.6,4.6,3.7
											s3,2.1,4.5,3c2.9,1.8,5.5,3.2,7.8,4.3l-17.1,10.4c-0.5-0.4-0.9-0.7-1.5-1.2c0,0-0.1,0-0.1-0.1c-0.2-0.1-0.4-0.3-0.5-0.5
											C1859.7,1047.7,1856.5,1045.1,1853.3,1041.9z"/>
										<path class="st1" d="M1819.2,1053.3l29.2-16.1C1840.6,1045.7,1830.3,1051.5,1819.2,1053.3z"/>
									</g>
								</g>
							</g>
						</g>
						<g>
							<g>
								<g>
									<g>
										<path class="st1" d="M1812.3,940L1812.3,940l19.3-5.4c0.4,0.3,0.8,0.7,1.3,1.2c0.6,0.7,1.3,1.5,2,2.4
											c1.6,2.2,2.5,4.2,3.3,6.3c0.5,1.4,1.1,3.1,1.8,5.1c0.3,1,0.6,2.1,1,3.2c0.3,1.1,0.7,2.4,1.1,3.6l0,0
											c0.9,4.6,1.1,9.2,0.8,13.1c-0.1,1.3-0.3,3.5-0.4,6.4s-0.2,6.6,0.3,10.9c0,0.1,0,0.2,0,0.3c0.5,4.5,1.2,7.9,1.3,8.6
											c0.6,2.9,1.5,5.7,2.4,8.1c0.9,2.5,1.8,4.7,2.6,6.5c0.8,1.9,1.6,3.3,2.1,4.3s0.9,1.6,0.9,1.6c1.9,3,3.8,5.5,5.6,7.6
											c1.9,2.1,3.8,3.8,5.5,5.3l-14.1,7.8c-0.1,0.2-0.3,0.3-0.5,0.5c-0.1-0.1-0.1-0.1-0.2-0.2c-1.7-1.8-3.3-3.5-4.7-5
											c-1.4-1.5-2.6-3-3.7-4.3c-2.2-2.7-3.9-5.2-5.4-7.8c0-0.1,0-0.1-0.1-0.1l0,0c-1.8-3.3-3.8-7.3-5.6-12
											c-1.7-4.7-2.9-10.3-3-16.5c0-6.7,1.3-8.8,0.6-16.5c-0.3-5-1.3-9.6-2.2-13c-0.4-1.7-0.9-3-1.2-4c-0.3-0.9-0.5-1.5-0.5-1.5
											c-2.4-6.3-5.9-11.1-8.7-14.7c-0.4-0.5-0.8-1-1.3-1.5c0,0,0,0-0.1-0.1C1812.6,940.3,1812.4,940.1,1812.3,940z"/>
										<path class="st1" d="M1834.6,1020.1L1834.6,1020.1c3.1,1.1,6,2.5,8.8,4.2c3.5,2.1,7,4.2,10.6,6.2c-1.5,2.3-3.2,4.5-5,6.5
											c-0.1,0.2-0.3,0.3-0.5,0.5c-0.1-0.1-0.1-0.1-0.2-0.2l-30,16.6c-5.5,0.8-11.3,0.7-17-0.6c-5.6-1.3-11.1-3.7-16.4-7.2
											c-3.7-2.5-7.3-5.1-11-7.8c6.7-10.3,16.6-16.8,27.4-19.7C1812.4,1015.6,1824.1,1016.1,1834.6,1020.1z"/>
										<path class="st1" d="M1831.5,987.5l2-12.1c0.3-1.6,0.6-3.2,1.1-4.7s1-3,1.6-4.5c1.2-2.9,2.8-5.7,4.6-8.2
											c1.8-2.6,3.8-4.9,6.1-7.1c2.3-2.2,4.8-4.1,7.4-5.9c10.7-7,23.9-10.2,37-9.2l-2.7,10.9c-0.8,2.9-1.7,5.7-3,8.5
											c-1.3,2.7-2.8,5.4-4.5,7.9c-3.5,5.1-7.9,9.6-13,13.4C1858,984,1845.1,988.6,1831.5,987.5z"/>
									</g>
								</g>
								<g>
									<path class="st2" d="M1794.2,1036.4c6.2,1.3,12.6,1.3,18.7,0.3s12-3.2,17.5-6.3c-4.4,4.9-10.5,8.2-17,9.3
										c-3.3,0.6-6.6,0.6-9.9,0.1C1800.2,1039.3,1797,1038.2,1794.2,1036.4z"/>
								</g>
								<g>
									<path class="st2" d="M1847.2,967.9c6-2.2,11.4-5.3,16.3-9s9.1-8,12.7-12.9c-1.7,5.6-5.8,10.9-10.9,14.8
										C1860.1,964.9,1853.7,967.6,1847.2,967.9z"/>
								</g>
							</g>
							<g>
								<g>
									<g>
										<path class="st1" d="M1805.3,930.3c-1.1-1.7-1.9-3-3.6-5.7l16.2-4.9c0.3,0.5,0.7,0.9,1,1.4c2.5,3.3,5,6.2,7.4,8.6
											c2.4,2.4,4.7,4.4,6.7,6l-19,6.3c-0.4-0.5-0.8-0.9-1.2-1.4l-0.1-0.1c-0.1-0.2-0.3-0.4-0.4-0.6
											C1810.3,937.3,1807.8,934.1,1805.3,930.3z"/>
										<path class="st1" d="M1769.7,934.3l31.9-9.6C1792.1,931.4,1780.8,934.7,1769.7,934.3z"/>
									</g>
								</g>
							</g>
						</g>
					</g>
					<g>
						<g>
							<g>
								<g>
									<g>
										<path class="st1" d="M1778.1,824.1L1778.1,824.1l19.2-5.5c0.4,0.4,0.8,0.8,1.3,1.3c0.7,0.7,1.4,1.6,2.1,2.6
											c1.7,2.4,2.5,4.5,3.3,6.8c1,3,2.3,7.4,3.4,12.9l0,0c0.6,4.9,0.5,9.7-0.1,13.7c-0.4,2.7-1.7,8.8-2.1,17.6
											c0,0.1,0,0.2,0,0.3c-0.1,4.7,0,8.1,0.1,8.8c0.8,12.1,4.3,21.9,4.3,21.9c2.5,6.6,5.6,11.3,8.3,15.1l-15.5,4.6
											c-0.2,0.1-0.4,0.3-0.6,0.4c0-0.1-0.1-0.1-0.1-0.2c-5.3-8.5-8.1-13.7-9.9-19.3c0-0.1,0-0.1-0.1-0.1l0,0
											c-2.3-7-5.3-16.8-3.7-29.1c0.9-6.6,2.4-8.5,2.6-16.1c0.2-5-0.5-9.7-1.1-13.1c-0.7-3.4-1.3-5.5-1.3-5.5
											c-2.2-6.4-5.4-11.4-8.4-14.9c-0.4-0.5-0.8-1-1.3-1.4c0,0,0,0-0.1-0.1C1778.4,824.5,1778.3,824.3,1778.1,824.1z"/>
										<path class="st1" d="M1791.8,905L1791.8,905c2.8,1.6,5.4,3.6,7.8,5.8c3,2.7,6.1,5.5,9.1,8.2c-2,1.9-4.1,3.7-6.3,5.3
											c-0.2,0.1-0.4,0.3-0.6,0.4c0-0.1-0.1-0.1-0.1-0.2l-32.8,9.9c-5.6-0.3-11.1-1.6-16.3-3.8c-2.6-1.1-5.1-2.4-7.5-4
											c-2.4-1.5-4.7-3.3-6.8-5.3l-9.1-8.5C1746.3,896.2,1772.6,893.5,1791.8,905z"/>
										<path class="st1" d="M1794.2,872.6l3.4-11.8c3.6-12.6,12-23.1,22.8-29.8c10.9-6.7,24.2-9.6,37.7-6.4l0,0
											c-1,4.2-2,8.4-3,12.5c-3.4,13.2-12.1,23.4-23.1,29.7C1820.9,873.1,1807.4,875.5,1794.2,872.6z"/>
									</g>
								</g>
								<g>
									<path class="st2" d="M1749.1,913.7c11.8,4.2,24.4,4.4,36.5,0.4C1775.2,922,1758.9,921.9,1749.1,913.7z"/>
								</g>
								<g>
									<path class="st2" d="M1811.9,854.7c12.3-3.2,22.9-10,30.5-20.1C1838.7,847.1,1825,855.7,1811.9,854.7z"/>
								</g>
							</g>
							<g>
								<g>
									<g>
										<path class="st1" d="M1770.9,814.8c-1.1-1.6-2.1-2.8-3.9-5.3l15.8-6c0.4,0.5,0.8,0.9,1.1,1.3c5.5,6.6,10.8,11.5,14.9,15
											l-19,6.4c-0.4-0.5-0.8-0.9-1.2-1.4l-0.1-0.1c-0.1-0.2-0.3-0.4-0.4-0.6C1776.1,821.5,1773.6,818.4,1770.9,814.8z"/>
										<path class="st1" d="M1735.8,821.5l31.2-11.9C1757.9,816.9,1746.8,820.6,1735.8,821.5z"/>
									</g>
								</g>
							</g>
						</g>
						<g>
							<g>
								<g>
									<g>
										<path class="st1" d="M1718.9,721.7L1718.9,721.7c4.9-4.6,9.7-9.2,14.6-13.7c0.5,0.2,1.1,0.4,1.8,0.6
											c1,0.4,2.1,0.9,3.2,1.6c2.7,1.6,4.5,3.4,6.3,5.3c2.3,2.6,5.6,6.3,8.8,11.5l0,0c1.3,2.3,2.4,4.7,3.2,7.1
											c0.4,1.2,0.8,2.3,1.1,3.4c0.3,1.1,0.5,2.2,0.7,3.3c0.2,1.4,0.6,3.7,1.1,6.8s1.3,6.9,2.2,11.4c0,0.1,0,0.2,0.1,0.3
											c1.1,4.7,2,8.1,2.2,8.8c1.8,6,3.8,11.3,5.4,15.1c0.8,1.9,1.5,3.4,2,4.5s0.8,1.7,0.8,1.7c1.7,3.2,3.4,5.9,5.1,8.3
											c1.7,2.4,3.3,4.4,4.8,6.2l-15.1,5.8c-0.2,0.1-0.3,0.3-0.5,0.4c0-0.1-0.1-0.1-0.1-0.2c-5.8-7.9-9.2-12.4-11.7-17.4
											c0,0,0-0.1-0.1-0.1l0,0c-0.8-1.6-1.7-3.3-2.6-5.2s-1.8-3.9-2.6-6.1c-1.7-4.4-3.1-9.5-3.8-15.5c-0.4-3.2-0.4-5.4-0.5-7.7
											s-0.4-4.7-1.4-8.4c-0.2-0.6-0.4-1.2-0.5-1.8c-0.2-0.6-0.4-1.1-0.6-1.7c-0.4-1.1-0.9-2.2-1.4-3.2c-0.9-2.1-2-3.8-2.9-5.3
											s-1.7-2.7-2.3-3.5c-0.6-0.8-1-1.2-1-1.2c-2.3-2.6-4.7-4.7-7.1-6.3c-1.2-0.8-2.4-1.6-3.5-2.2c-1.1-0.6-2.3-1.1-3.3-1.6
											c-0.6-0.3-1.2-0.5-1.8-0.7c0,0,0,0-0.1,0C1719.3,721.8,1719.1,721.7,1718.9,721.7z"/>
										<path class="st1" d="M1755.1,792.2L1755.1,792.2c2.9,1.1,5.7,2.6,8.4,4.4c3.3,2.3,6.6,4.7,9.9,7.1c-1.8,2.1-3.8,4-5.8,5.8
											c-0.2,0.1-0.3,0.3-0.5,0.4c0-0.1-0.1-0.1-0.1-0.2l-32,12.2c-5.5,0.4-10.9-0.1-16.1-1.1c-2.6-0.5-5.1-1.2-7.5-2
											s-4.7-1.8-6.9-3c-1.5-0.8-3.1-1.6-4.6-2.3c-1.5-0.8-3.1-1.5-4.6-2.1c3.8-4.1,8.1-7.9,12.8-11.1c4.7-3.2,9.7-5.8,15-7.7
											C1733.4,788.8,1744.8,788.3,1755.1,792.2z"/>
										<path class="st1" d="M1751.1,760.7c0-4,0.1-8.2-0.1-12.3c-0.1-1.7-0.1-3.3,0-5s0.2-3.3,0.4-4.9c0.3-3.3,1-6.5,1.8-9.7
											c1.6-6.3,4.4-12.4,7.9-17.7c3.5-5.4,8.1-10.1,13.6-13.5s12.2-5.6,19.6-5.8c0.6,2.6,1.3,5.1,1.9,7.7c0.5,2.5,1,5.1,1.5,7.6
											c1.5,8.1,0.9,15.5-1.2,22.1c-2,6.6-5.6,12.2-10.1,16.8C1777.4,755.1,1764.6,760.1,1751.1,760.7z"/>
									</g>
								</g>
								<g>
									<path class="st2" d="M1714.4,807.8c5.9,0.5,11.9,0.4,17.9-0.6s12-2.7,17.8-5.4c-4.8,4.3-11.2,7-17.7,7.9
										c-3.2,0.5-6.5,0.6-9.5,0.2c-1.5-0.2-3-0.4-4.4-0.8C1717,808.8,1715.6,808.3,1714.4,807.8z"/>
								</g>
								<g>
									<path class="st2" d="M1762.8,738.1c5.4-3.4,10-7.6,13.7-12.7c3.6-5,6.2-10.9,7.6-17.7c0.5,3.7,0.3,7.4-0.6,10.7
										c-0.9,3.4-2.4,6.5-4.4,9.1C1775.1,733,1769.2,736.7,1762.8,738.1z"/>
								</g>
							</g>
							<g>
								<g>
									<g>
										<path class="st1" d="M1708.3,717.1c-1.8-0.7-3.2-1.3-5.9-2.5l10.3-13.4c0.6,0.2,1.1,0.4,1.7,0.6c2.1,0.8,4.1,1.5,6,2.1
											s3.8,1.3,5.6,1.8c3.6,1.1,6.7,2,9.5,2.7l-14.1,14.2c-0.5-0.2-1.1-0.5-1.7-0.7h-0.1c-0.2-0.1-0.4-0.2-0.6-0.3
											c-0.7-0.3-1.5-0.7-2.3-1s-1.7-0.7-2.6-1.1c-0.9-0.4-1.8-0.8-2.8-1.2C1710.3,717.9,1709.3,717.5,1708.3,717.1z"/>
										<path class="st1" d="M1682,741.1l20.4-26.4C1698.3,725.6,1690.4,734.4,1682,741.1z"/>
									</g>
								</g>
							</g>
						</g>
					</g>
				</g>
			</g>
		</g>
		<g>
			<g>
				<g id="_x3C_Radial_Repeat_x3E__00000105426355746325502410000004371254897161146265_">
					<path class="st3" d="M1781.1,652.1l-3.7,7.4c-17.4,35.3-2.9,78.1,32.4,95.5l16.3,8.1c35.3,17.4,78.1,2.9,95.5-32.4l3.7-7.4
						c17.4-35.3,2.9-78.1-32.4-95.5l-16.3-8.1C1841.3,602.3,1798.5,616.8,1781.1,652.1z"/>
					<g>
						<path class="st4" d="M1803.9,660.6c3.5-1.3,28.2-10.3,53.6,3.7c24.6,13.5,30.7,37.9,31.6,41.7"/>
						<path class="st5" d="M1803.9,660.6c26.1-11.5,57.9-3.2,74.4,20.2c5.3,7.5,9.2,16.1,10.8,25.1c-3.4-10.7-9.3-20.7-17.1-28.8
							C1854.3,658.9,1828,653.5,1803.9,660.6L1803.9,660.6z"/>
					</g>
					<g>
						<path class="st4" d="M1900.5,735.4c-3.5,1.3-28.2,10.3-53.6-3.7c-24.6-13.5-30.7-37.9-31.6-41.7"/>
						<path class="st5" d="M1900.5,735.4c-26.1,11.5-57.9,3.2-74.4-20.2c-5.3-7.5-9.2-16.1-10.8-25.1c3.4,10.7,9.3,20.7,17.1,28.8
							C1850.1,737.1,1876.4,742.4,1900.5,735.4L1900.5,735.4z"/>
					</g>
				</g>
				<g id="_x3C_Radial_Repeat_x3E__00000018211046236162070040000009635031928945634990_">
					<path class="st3" d="M1779.7,609.7l0.9,8.2c4.4,39.1,39.7,67.3,78.9,62.9l18.1-2c39.1-4.4,67.3-39.7,62.9-78.9l-0.9-8.2
						c-4.4-39.1-39.7-67.3-78.9-62.9l-18.1,2C1803.4,535.3,1775.3,570.6,1779.7,609.7z"/>
					<g>
						<path class="st4" d="M1803.5,604.5c2.2-3,18.2-23.9,47.1-25.9c27.9-2,46.3,15.3,49.1,18"/>
						<path class="st5" d="M1803.5,604.5c15.8-23.8,46.9-34,73.5-23.3c8.5,3.4,16.5,8.6,22.7,15.3c-8.7-7.2-19-12.4-29.9-15
							C1845,575.8,1819.9,585.6,1803.5,604.5L1803.5,604.5z"/>
					</g>
					<g>
						<path class="st4" d="M1925.2,615.2c-2.2,3-18.2,23.9-47.1,25.9c-27.9,2-46.3-15.3-49.1-18"/>
						<path class="st5" d="M1925.2,615.2c-15.8,23.8-46.9,34-73.5,23.3c-8.5-3.4-16.5-8.6-22.7-15.3c8.7,7.2,19,12.4,29.9,15
							C1883.7,643.9,1908.7,634.2,1925.2,615.2L1925.2,615.2z"/>
					</g>
				</g>
				<g id="_x3C_Radial_Repeat_x3E__00000179606391040387047800000016691703784844941475_">
					<path class="st3" d="M1755.6,574.8l5.2,6.4c24.9,30.5,69.8,35.1,100.3,10.2l14.1-11.5c30.5-24.9,35.1-69.8,10.2-100.3l-5.2-6.4
						c-24.9-30.5-69.8-35.1-100.3-10.2l-14.1,11.5C1735.3,499.4,1730.7,544.3,1755.6,574.8z"/>
					<g>
						<path class="st4" d="M1772.8,557.6c0.2-3.8,2.4-29.9,25.6-47.3c22.4-16.7,47.2-12.2,51-11.4"/>
						<path class="st5" d="M1772.8,557.6c0.4-28.5,21.1-54,49.3-59.3c9-1.7,18.5-1.7,27.4,0.6c-13.4-1.5-27.3,0.3-39.4,6.2
							C1789.5,514.7,1776,535.4,1772.8,557.6L1772.8,557.6z"/>
					</g>
					<g>
						<path class="st4" d="M1881,500.8c-0.2,3.8-2.4,29.9-25.6,47.3c-22.4,16.7-47.2,12.2-51,11.4"/>
						<path class="st5" d="M1881,500.8c-0.4,28.5-21.1,54-49.3,59.3c-9,1.7-18.5,1.7-27.4-0.6c13.4,1.5,27.3-0.3,39.4-6.2
							C1864.3,543.7,1877.8,523,1881,500.8L1881,500.8z"/>
					</g>
				</g>
				<g id="_x3C_Radial_Repeat_x3E__00000044159398389527319580000009489546592639133828_">
					<path class="st3" d="M1716.5,558.5l7.9,2.6c37.4,12.2,77.7-8.2,89.9-45.6l5.7-17.3c12.2-37.4-8.2-77.7-45.6-89.9l-7.9-2.6
						c-37.4-12.2-77.7,8.2-89.9,45.6l-5.7,17.3C1658.6,506,1679.1,546.3,1716.5,558.5z"/>
					<g>
						<path class="st4" d="M1721.6,534.7c-1.8-3.3-14.2-26.5-4-53.6c9.8-26.2,33.1-35.8,36.8-37.2"/>
						<path class="st5" d="M1721.6,534.7c-15.1-24.2-11.4-56.8,9.4-76.5c6.6-6.3,14.6-11.4,23.4-14.2c-10.1,4.9-19.1,12.1-26,21
							C1712.8,485,1711.2,511.8,1721.6,534.7L1721.6,534.7z"/>
					</g>
					<g>
						<path class="st4" d="M1781.9,428.4c1.8,3.3,14.2,26.5,4,53.6c-9.8,26.2-33.1,35.8-36.8,37.2"/>
						<path class="st5" d="M1781.9,428.4c15.1,24.2,11.4,56.8-9.4,76.5c-6.6,6.3-14.6,11.4-23.4,14.2c10.1-4.9,19.1-12.1,26-21
							C1790.8,478.1,1792.3,451.3,1781.9,428.4L1781.9,428.4z"/>
					</g>
				</g>
				<g id="_x3C_Radial_Repeat_x3E__00000121992381684364608460000015300688560854366595_">
					<path class="st3" d="M1674.7,565.9l8-2.1c38.1-9.9,60.9-48.9,51-87l-4.6-17.6c-9.9-38.1-48.9-60.9-87-51l-8,2.1
						c-38.1,9.9-60.9,48.9-51,87l4.6,17.6C1597.7,553,1636.6,575.8,1674.7,565.9z"/>
					<g>
						<path class="st4" d="M1666.2,543.1c-3.3-1.8-26.2-14.6-32.3-42.9c-5.9-27.4,8.5-48,10.8-51.2"/>
						<path class="st5" d="M1666.2,543.1c-25.8-12.2-40.3-41.6-33.5-69.5c2.2-8.9,6.1-17.5,12-24.6c-5.9,9.6-9.5,20.5-10.6,31.7
							C1631.9,506.1,1645.1,529.5,1666.2,543.1L1666.2,543.1z"/>
					</g>
					<g>
						<path class="st4" d="M1659.5,421.1c3.3,1.8,26.2,14.6,32.3,42.9c5.9,27.4-8.5,48-10.8,51.2"/>
						<path class="st5" d="M1659.5,421.1c25.8,12.2,40.3,41.6,33.5,69.5c-2.2,8.9-6.1,17.5-12,24.6c5.9-9.6,9.5-20.5,10.6-31.7
							C1693.8,458.1,1680.6,434.7,1659.5,421.1L1659.5,421.1z"/>
					</g>
				</g>
				<g id="_x3C_Radial_Repeat_x3E__00000173153349648227366270000012104341791630855049_">
					<path class="st3" d="M1643.6,594.7l5.6-6.1c26.7-29,24.8-74.1-4.2-100.8l-13.4-12.3c-29-26.7-74.1-24.8-100.8,4.2l-5.6,6.1
						c-26.7,29-24.8,74.1,4.2,100.8l13.4,12.3C1571.8,625.5,1616.9,623.7,1643.6,594.7z"/>
					<g>
						<path class="st4" d="M1624.1,580.1c-3.8,0.3-30,1.9-50.4-18.6c-19.8-19.8-18.8-45-18.6-48.9"/>
						<path class="st5" d="M1624.1,580.1c-28.3,3.7-56.4-13.2-65.7-40.3c-3-8.7-4.3-18-3.3-27.2c0.3,11.3,3.1,22.4,8.3,32.4
							C1575.3,567.6,1599,580.1,1624.1,580.1L1624.1,580.1z"/>
					</g>
					<g>
						<path class="st4" d="M1552.5,481.1c3.8-0.3,30-1.9,50.4,18.6c19.8,19.8,18.8,45,18.6,48.9"/>
						<path class="st5" d="M1552.5,481.1c28.3-3.7,56.4,13.2,65.7,40.3c3,8.7,4.3,18,3.3,27.2c-0.3-11.3-3.1-22.4-8.3-32.4
							C1601.4,493.7,1577.6,481.2,1552.5,481.1L1552.5,481.1z"/>
					</g>
				</g>
				<g id="_x3C_Radial_Repeat_x3E__00000001662288661213780980000011702161834185177527_">
					<path class="st3" d="M1633,635.7l1.4-8.2c6.8-38.8-19.2-75.7-58-82.5l-17.9-3.1c-38.8-6.8-75.7,19.2-82.5,58l-1.4,8.2
						c-6.8,38.8,19.2,75.7,58,82.5l17.9,3.1C1589.3,700.5,1626.2,674.5,1633,635.7z"/>
					<g>
						<path class="st4" d="M1608.8,634c-3,2.3-24.2,17.8-52.5,11.6c-27.4-6-40.1-27.7-42-31.1"/>
						<path class="st5" d="M1608.8,634c-21.8,18.4-54.6,19.4-77.1,1.6c-7.2-5.7-13.4-12.9-17.4-21.1c6.3,9.3,14.7,17.2,24.5,22.8
							C1560.8,649.9,1587.6,647.6,1608.8,634L1608.8,634z"/>
					</g>
					<g>
						<path class="st4" d="M1494.9,589.5c3-2.3,24.2-17.8,52.5-11.6c27.4,6,40.1,27.7,42,31.1"/>
						<path class="st5" d="M1494.9,589.5c21.8-18.4,54.6-19.4,77.1-1.6c7.2,5.7,13.4,12.9,17.4,21.1c-6.3-9.3-14.7-17.2-24.5-22.8
							C1542.8,573.6,1516.1,575.9,1494.9,589.5L1494.9,589.5z"/>
					</g>
				</g>
				<g id="_x3C_Radial_Repeat_x3E__00000075129439282825918610000007785801022870979224_">
					<path class="st3" d="M1646.3,676l-3.2-7.6c-15.3-36.3-57.1-53.4-93.4-38.1l-16.8,7.1c-36.3,15.3-53.4,57.1-38.1,93.4l3.2,7.6
						c15.3,36.3,57.1,53.4,93.4,38.1l16.8-7.1C1644.5,754.1,1661.6,712.3,1646.3,676z"/>
					<g>
						<path class="st4" d="M1625,687.7c-1.3,3.5-10.7,28.1-37.9,38.1c-26.3,9.7-48.7-1.6-52.2-3.4"/>
						<path class="st5" d="M1625,687.7c-8.4,27.3-35.5,45.8-64,43c-9.1-0.9-18.2-3.6-26.1-8.3c10.4,4.4,21.7,6.5,32.9,5.9
							C1593.2,726.9,1614.5,710.5,1625,687.7L1625,687.7z"/>
					</g>
					<g>
						<path class="st4" d="M1505.1,711.7c1.3-3.5,10.7-28.1,37.9-38.1c26.3-9.7,48.7,1.6,52.2,3.4"/>
						<path class="st5" d="M1505.1,711.7c8.4-27.3,35.5-45.8,64-43c9.1,0.9,18.2,3.6,26.1,8.3c-10.4-4.4-21.7-6.5-32.9-5.9
							C1536.8,672.5,1515.6,688.9,1505.1,711.7L1505.1,711.7z"/>
					</g>
				</g>
				<g id="_x3C_Radial_Repeat_x3E__00000156573212454168679530000018143803032173957543_">
					<path class="st3" d="M1679.2,702.7l-6.8-4.7c-32.5-22.3-76.9-14-99.2,18.4l-10.3,15c-22.3,32.5-14,76.9,18.4,99.2l6.8,4.7
						c32.5,22.3,76.9,14,99.2-18.4l10.3-15C1720,769.4,1711.7,725,1679.2,702.7z"/>
					<g>
						<path class="st4" d="M1667.6,724.1c0.8,3.7,6.1,29.4-11.2,52.5c-16.8,22.4-41.8,25-45.7,25.3"/>
						<path class="st5" d="M1667.6,724.1c7.7,27.5-5.1,57.8-30.6,70.8c-8.2,4.2-17.3,6.8-26.4,7.1c11.1-1.9,21.8-6.2,30.9-12.8
							C1662.1,774.3,1671.1,749,1667.6,724.1L1667.6,724.1z"/>
					</g>
					<g>
						<path class="st4" d="M1579.8,809.1c-0.8-3.7-6.1-29.4,11.2-52.5c16.8-22.4,41.8-25,45.7-25.3"/>
						<path class="st5" d="M1579.8,809.1c-7.7-27.5,5.1-57.8,30.6-70.8c8.2-4.2,17.3-6.8,26.4-7.1c-11.1,1.9-21.8,6.2-30.9,12.8
							C1585.3,758.9,1576.2,784.2,1579.8,809.1L1579.8,809.1z"/>
					</g>
				</g>
				<g id="_x3C_Radial_Repeat_x3E__00000003067598007302379980000000262174373775882118_">
					<path class="st3" d="M1721.4,707.4l-8.3-0.3c-39.4-1.2-72.2,29.8-73.4,69.1l-0.6,18.2c-1.2,39.4,29.8,72.2,69.1,73.4l8.3,0.3
						c39.4,1.2,72.2-29.8,73.4-69.1l0.6-18.2C1791.7,741.5,1760.7,708.6,1721.4,707.4z"/>
					<g>
						<path class="st4" d="M1723.1,731.6c2.7,2.6,21.1,21.4,18.9,50.3c-2,27.9-21.7,43.6-24.8,46"/>
						<path class="st5" d="M1723.1,731.6c21.3,19,27,51.3,12.6,76.1c-4.6,8-10.8,15.1-18.4,20.2c8.3-7.6,14.9-17,19.1-27.5
							C1745.6,776.8,1739.5,750.6,1723.1,731.6L1723.1,731.6z"/>
					</g>
					<g>
						<path class="st4" d="M1695.2,850.6c-2.7-2.6-21.1-21.4-18.9-50.3c2-27.9,21.7-43.6,24.8-46"/>
						<path class="st5" d="M1695.2,850.6c-21.3-19-27-51.3-12.6-76.1c4.6-8,10.8-15.1,18.4-20.2c-8.3,7.6-14.9,17-19.1,27.5
							C1672.7,805.5,1678.8,831.6,1695.2,850.6L1695.2,850.6z"/>
					</g>
				</g>
				<g id="_x3C_Radial_Repeat_x3E__00000127026363559339434390000007209168671323708303_">
					<path class="st3" d="M1759.3,688.5l-7.1,4.3c-33.8,20.3-44.7,64.1-24.4,97.9l9.4,15.6c20.3,33.8,64.1,44.7,97.9,24.4l7.1-4.3
						c33.8-20.3,44.7-64.1,24.4-97.9l-9.4-15.6C1836.9,679.2,1793.1,668.2,1759.3,688.5z"/>
					<g>
						<path class="st4" d="M1773.9,708c3.7,0.8,29.3,6.6,43.1,32.1c13.4,24.6,5.4,48.4,4,52.1"/>
						<path class="st5" d="M1773.9,708c28.2,4.4,50.4,28.6,51.7,57.2c0.4,9.2-1,18.5-4.5,27c3.3-12.5,3.5-25.8,0-38.3
							C1814.7,731.2,1796.3,714.6,1773.9,708L1773.9,708z"/>
					</g>
					<g>
						<path class="st4" d="M1814.8,823.2c-3.7-0.8-29.3-6.6-43.1-32.1c-13.4-24.6-5.4-48.4-4-52.1"/>
						<path class="st5" d="M1814.8,823.2c-28.2-4.4-50.4-28.6-51.7-57.2c-0.4-9.2,1-18.5,4.5-27c-3.3,12.5-3.5,25.8,0,38.3
							C1774,799.9,1792.4,816.6,1814.8,823.2L1814.8,823.2z"/>
					</g>
				</g>
			</g>
			<path class="st6" d="M1708.1,729.2L1708.1,729.2c50.6,0,91.7-41.1,91.7-91.7l0,0c0-50.6-41.1-91.7-91.7-91.7l0,0
				c-50.6,0-91.7,41.1-91.7,91.7l0,0C1616.4,688.1,1657.5,729.2,1708.1,729.2z"/>
		</g>
	</g>
</g>
<g id="Layer_6">
</g>
<g id="Layer_4">
</g>
</svg>
