<svg id="Layer_1" data-name="Layer 1" xmlns="http://www.w3.org/2000/svg" viewBox="0 0 1920 1243.58"><defs><style>.cls-1{fill:#f3f2fb;}.cls-2{fill:#265646;}.cls-3{fill:#0b1737;}.cls-4,.cls-5{fill:#fff;}.cls-4,.cls-7{stroke:#2e2399;}.cls-4{stroke-width:3px;}.cls-6{fill:#2e2399;}.cls-7{fill:#a02517;}</style></defs><g id="Layer_5" data-name="Layer 5"><rect class="cls-1" x="-116.01" y="-22.97" width="2334.06" height="1389.47"/><path class="cls-2" d="M-57.66,1006.2c2-.1,4.1-.2,6.1-.4l6.1-.6a53.46,53.46,0,0,1,9.8,0,58.88,58.88,0,0,1,9.5,1.6,56.44,56.44,0,0,1,17.5,7.9c10.6,7.3,18.6,18.4,20.3,32.4l-6.8,1.4c-2.3.5-4.5.9-6.8,1.3a49.29,49.29,0,0,1-20.7-.8,46,46,0,0,1-17.1-9c-9.9-8.2-16.2-20.4-17.9-33.8Z"/><path class="cls-2" d="M-13.66,962.6c1-1.7,1.7-3.1,3.2-5.8l12,11.8a11.11,11.11,0,0,0-.7,1.6c-1.8,3.9-3.4,7.5-4.6,10.9s-2.2,6.4-2.9,9l-13.6-14.7c.3-.5.5-1.1.8-1.7a.1.1,0,0,1,.1-.1l.3-.6C-17.66,970-15.86,966.5-13.66,962.6Z"/><path class="cls-2" d="M55.74,879.3h0l16.7,11.1c0,.5-.1,1.1-.1,1.9a23.26,23.26,0,0,1-.6,3.3,25.87,25.87,0,0,1-3.2,6.9c-.8,1.4-1.9,3-3.2,4.9s-2.9,3.9-4.7,6.2h0a50.15,50.15,0,0,1-10.9,8.8c-1.2.7-3.2,1.7-5.9,3.3-1.3.8-2.8,1.7-4.3,2.7s-3.4,2.1-5.2,3.4c-.1.1-.2.1-.3.2a76.47,76.47,0,0,0-7.1,5.4,95.89,95.89,0,0,0-11.5,11,64.18,64.18,0,0,0-4.5,5.1A35.2,35.2,0,0,0,8,957.7q-1.35,2.1-2.4,3.9c-1.5,2.5-2.6,4.9-3.7,7l-11.7-11.3-.6-.3c0-.1.1-.1.1-.2,1.2-2.1,2.2-4.1,3.2-5.8.5-.9,1-1.7,1.4-2.5s.9-1.6,1.3-2.3a57.55,57.55,0,0,1,5.1-7.5l.1-.1h0l1.8-2.1c.6-.8,1.2-1.6,1.9-2.4,1.4-1.6,2.9-3.3,4.6-5A63,63,0,0,1,22,919.3c2.9-1.6,4.9-2.4,7-3.4a44.78,44.78,0,0,0,7.3-4.3,32.53,32.53,0,0,0,2.9-2.3c.9-.8,1.7-1.6,2.5-2.4,1.6-1.6,3-3.1,4.1-4.4s2-2.5,2.6-3.3.9-1.3.9-1.3a40.4,40.4,0,0,0,4-8.5,42.11,42.11,0,0,0,2-7.5c.1-.7.2-1.3.3-1.9v-.1C55.74,879.8,55.74,879.6,55.74,879.3Z"/><path class="cls-2" d="M.84,938.7h0a38.27,38.27,0,0,1-.6,9.5c-.4,2-.7,4-1.1,6l-1.3,6a42,42,0,0,1-7.7-2.9l-.6-.3c0-.1.1-.1.1-.2l-24.5-23.9a57.16,57.16,0,0,1-5.7-15,47.45,47.45,0,0,1-1.2-15.4c.4-3.5.5-7.2.7-10.8a63,63,0,0,1,28.7,17.5,52.29,52.29,0,0,1,9.2,13.7,44,44,0,0,1,2.7,7.7c.3,1.3.6,2.7.8,4A28.68,28.68,0,0,1,.84,938.7Z"/><path class="cls-2" d="M28.34,922.3c3.8-1.4,7.6-3,11.4-4.6a51.13,51.13,0,0,1,9.4-2.9,50.4,50.4,0,0,1,9.5-1.2,55.71,55.71,0,0,1,19,2.7,49.07,49.07,0,0,1,16.7,9.3,42.3,42.3,0,0,1,6.8,7.2,45.32,45.32,0,0,1,5.2,8.8h0c-4,2.1-8.1,4.2-12.1,6.2a48.3,48.3,0,0,1-19.8,5,46.14,46.14,0,0,1-18.9-3.6c-11.9-4.9-21.6-14.6-27.2-26.9Z"/><path class="cls-3" d="M53.44,925.3c10.1,7.7,22.2,11.8,35.1,10.8a25.38,25.38,0,0,1-9.7,2.2,29.45,29.45,0,0,1-9.8-1.4A29,29,0,0,1,53.44,925.3Z"/><path class="cls-2" d="M58.24,867.9c.4-1.9.8-3.4,1.5-6.4l14.8,8.1c-.1.6-.2,1.2-.3,1.7-.4,2.1-.6,4.1-.9,6.1s-.4,3.8-.6,5.6a78.51,78.51,0,0,0-.3,9.4L55.34,882l.3-1.8v-.1c0-.2.1-.5.1-.7C56.44,876.1,57.24,872.3,58.24,867.9Z"/><path class="cls-2" d="M30.44,845.3l29.2,16.1A55.94,55.94,0,0,1,30.44,845.3Z"/><path class="cls-2" d="M104.94,770.1h0l18.7,7.1q.15.75.3,1.8a18.44,18.44,0,0,1,.1,3.4,26.94,26.94,0,0,1-1.5,7.4c-.5,1.5-1.2,3.4-2,5.5-.4,1.1-.9,2.2-1.4,3.3s-1.1,2.4-1.7,3.7h0a49.45,49.45,0,0,1-8.6,11c-1,.9-2.7,2.4-4.9,4.5s-4.8,4.8-7.8,8.2c-.1.1-.1.2-.2.2a80.48,80.48,0,0,0-5.6,7q-2.7,3.75-4.8,7.2a71.08,71.08,0,0,0-3.5,6.3c-.9,1.8-1.7,3.3-2.2,4.4s-.8,1.7-.8,1.7a61.06,61.06,0,0,0-3,9.2c-.7,2.8-1.3,5.4-1.7,7.7l-14.1-7.8c-.2,0-.4-.1-.7-.1v-.2c.6-2.4,1.1-4.5,1.6-6.4s.9-3.7,1.4-5.3a47,47,0,0,1,3.1-8.5.1.1,0,0,1,.1-.1h0a83.79,83.79,0,0,1,5.6-11.3,56.23,56.23,0,0,1,10.2-12.7c4.7-4.5,7.1-5.1,12.1-10.9a62.82,62.82,0,0,0,7.1-11.1,22.63,22.63,0,0,0,1.7-3.8c.4-.9.6-1.5.6-1.5a46.17,46.17,0,0,0,2.3-17c0-.7-.1-1.3-.1-1.9V771A1.21,1.21,0,0,1,104.94,770.1Z"/><path class="cls-2" d="M65.54,841.1h0a41.18,41.18,0,0,1,1.8,9.4c.3,4,.7,8.1.9,12.2A55.54,55.54,0,0,1,60,862c-.2,0-.4-.1-.7-.1v-.2l-30-16.6a54.85,54.85,0,0,1-9.4-13.2,48.54,48.54,0,0,1-5-14.9c-.6-3.7-1.2-7.3-1.9-10.9a61.17,61.17,0,0,1,32.2,9.7A47.45,47.45,0,0,1,65.54,841.1Z"/><path class="cls-2" d="M88.14,818.3l10-7.1a36.22,36.22,0,0,1,4.1-2.7c1.4-.8,2.8-1.6,4.2-2.3a48.57,48.57,0,0,1,9-3.3,61,61,0,0,1,9.5-1.7,50.25,50.25,0,0,1,9.5,0c12.7,1.2,25.2,6.9,33.9,17.9l-10.2,8.6a48.22,48.22,0,0,1-8.7,5.7,45.5,45.5,0,0,1-9.3,3.5,46.09,46.09,0,0,1-19.2.9,52.66,52.66,0,0,1-32.8-19.5Z"/><path class="cls-3" d="M27.84,819.2a69.16,69.16,0,0,0,11.5,13.9,62.83,62.83,0,0,0,15.4,10.3,34.26,34.26,0,0,1-23.5-15.9A28,28,0,0,1,27.84,819.2Z"/><path class="cls-3" d="M113.24,815.3a54.88,54.88,0,0,0,18.1,4.6,51.23,51.23,0,0,0,18.5-2.1,27.76,27.76,0,0,1-18.7,5.1A30.52,30.52,0,0,1,113.24,815.3Z"/><path class="cls-2" d="M104.84,758.4c0-2,.1-3.5.2-6.6l16.2,4.9c0,.6.1,1.2.1,1.7.2,4.2.6,8.1,1.1,11.6s1.1,6.6,1.7,9.2l-19-6.3c0-.6-.1-1.2-.1-1.9v-.8C104.84,766.9,104.84,762.9,104.84,758.4Z"/><path class="cls-2" d="M72.94,742.2l31.9,9.6A55,55,0,0,1,72.94,742.2Z"/><path class="cls-2" d="M139.54,654.4h0l18.6,7.3c.1.5.2,1.1.3,1.7a28.8,28.8,0,0,1,.2,3.2,25,25,0,0,1-1.2,7c-.9,2.9-2.2,7-4.2,12h0a55,55,0,0,1-7.4,11.1,100.38,100.38,0,0,0-10.9,13.7c-.1.1-.1.2-.2.3-2.5,3.9-4.1,6.9-4.5,7.6a96.94,96.94,0,0,0-7.7,21,69.33,69.33,0,0,0-1.1,17.4l-15.5-4.6h-.7v-.2c.2-9.8.5-15.7,1.9-21.3v-.2h0c1.7-7,4.1-17,11.9-26.7,4.2-5.2,6.4-6,10.7-12.4a67.33,67.33,0,0,0,6.2-11.6,46.79,46.79,0,0,0,2-5.3,54.77,54.77,0,0,0,1.9-17c0-.7-.1-1.3-.1-1.9v-.1A2.68,2.68,0,0,1,139.54,654.4Z"/><path class="cls-2" d="M107,730.2h0a46.07,46.07,0,0,1,3.6,8.9c1.1,3.9,2.2,7.8,3.3,11.8a44.84,44.84,0,0,1-8.1,1h-.7v-.2l-32.8-9.9a58,58,0,0,1-11.9-11.3,50.27,50.27,0,0,1-4.4-6.9,40,40,0,0,1-3.1-7.7l-3.5-11.5C72.64,699.3,96.54,710.5,107,730.2Z"/><path class="cls-2" d="M125.84,703.7l9-8.2c9.7-8.8,22.5-12.5,35.1-11.7a57.31,57.31,0,0,1,35,15.2h0c-3,2.4-6,4.9-9,7.4A51.8,51.8,0,0,1,161,718.3a52.83,52.83,0,0,1-35.2-14.6Z"/><path class="cls-3" d="M66,715.4a58.93,58.93,0,0,0,30.9,19.2C84,735.5,70.34,727,66,715.4Z"/><path class="cls-3" d="M150.34,698a61.09,61.09,0,0,0,36.4.2C177,705.5,160.84,705.7,150.34,698Z"/><path class="cls-2" d="M139.84,642.5c.1-2,.3-3.6.6-6.7l15.8,6v1.7a79.56,79.56,0,0,0,2.4,20l-19-6.4a12.75,12.75,0,0,0-.1-1.9v-.8A100.52,100.52,0,0,1,139.84,642.5Z"/><path class="cls-2" d="M109.14,623.8l31.2,11.9A49.83,49.83,0,0,1,109.14,623.8Z"/><path class="cls-2" d="M199.34,550.1h0c4.4,5.1,8.8,10,13.3,15-.1.5-.3,1-.4,1.6a25.72,25.72,0,0,1-1.1,2.7,22.08,22.08,0,0,1-3.6,5.4c-1.7,2.1-4.4,5-7.8,8.5h0c-1.7,1.4-3.3,2.8-5,4-.9.6-1.7,1.2-2.6,1.7s-1.7,1-2.5,1.5c-1.1.6-3,1.5-5.4,3a58.58,58.58,0,0,0-8.4,6.4l-.2.2a69,69,0,0,0-6,6.1,61,61,0,0,0-8.3,12.9c-.9,1.8-1.6,3.3-2,4.3s-.6,1.7-.6,1.7a52.8,52.8,0,0,0-2.2,9.2,74.45,74.45,0,0,0-.6,7.6l-15.1-5.8h-.7v-.2c1-10,2.2-16,4.5-21.7,0-.1,0-.1.1-.2h0c.7-1.7,1.5-3.7,2.5-5.7a44.58,44.58,0,0,1,3.5-6.3,48,48,0,0,1,11.5-12.7A48.71,48.71,0,0,1,169,585a55.38,55.38,0,0,0,7.2-4.8c1-.8,1.9-1.6,2.9-2.3s1.8-1.5,2.6-2.3c1.6-1.5,3.1-2.9,4.3-4.1s2.1-2.3,2.8-3a11.77,11.77,0,0,0,1-1.1,65.22,65.22,0,0,0,5.2-7.7,31.25,31.25,0,0,0,1.9-3.6c.6-1.2,1.1-2.2,1.6-3.3.3-.6.5-1.2.8-1.8v-.1A2.13,2.13,0,0,1,199.34,550.1Z"/><path class="cls-2" d="M144.64,614h0a61.06,61.06,0,0,1,2.3,9.6c.6,4.1,1.3,8.1,2,12.1a56.31,56.31,0,0,1-8.2.4H140v-.2l-32-12.2a42.23,42.23,0,0,1-10.3-13.6,44.28,44.28,0,0,1-3.2-8.4,47.32,47.32,0,0,1-1.5-9.4c-.1-2.4-.2-4.7-.3-7.1s-.2-4.8-.1-7.2a41.62,41.62,0,0,1,17.7,1.2,45.21,45.21,0,0,1,15,7.6A55.35,55.35,0,0,1,144.64,614Z"/><path class="cls-2" d="M168.64,591.3c3.7-1.8,7.2-3.7,11-5.2,1.5-.6,3-1.2,4.4-1.6a23.55,23.55,0,0,1,4.6-1,35.47,35.47,0,0,1,9.2-.3,45.34,45.34,0,0,1,17.6,5.6,68.07,68.07,0,0,1,15.2,11.6,95.06,95.06,0,0,1,12.1,14.9h0c-1.5.2-3,.3-4.5.5l-4.6.8a66.38,66.38,0,0,1-16.4,1,72.27,72.27,0,0,1-18-3.4c-11.9-4-23.5-11.2-30.6-22.9Z"/><path class="cls-3" d="M106.54,592.8a44.93,44.93,0,0,0,11.4,15,51.68,51.68,0,0,0,16,9.6,29.18,29.18,0,0,1-18-7.1,31.25,31.25,0,0,1-6.3-7.7,24.61,24.61,0,0,1-2-4.7A21,21,0,0,1,106.54,592.8Z"/><path class="cls-3" d="M193.54,593.3a70,70,0,0,0,16.4,8.7,83.88,83.88,0,0,0,16.9,4.7,25.81,25.81,0,0,1-8.3-.1,45,45,0,0,1-9.1-2.3C203.34,602,197.44,598.4,193.54,593.3Z"/><path class="cls-2" d="M205.44,539.7c1.2-1.7,2.1-3,4.1-5.6l10.3,13.4a10,10,0,0,0-.8,1.4c-1,1.7-1.9,3.4-2.7,5a36.7,36.7,0,0,0-1.9,4.8,45,45,0,0,0-2.1,8.2l-14.1-14.3c.2-.5.5-1.1.8-1.7a.1.1,0,0,1,.1-.1l.3-.6c.4-.7.7-1.6,1.2-2.4s.9-1.6,1.4-2.5,1.1-1.8,1.6-2.7S204.84,540.7,205.44,539.7Z"/><path class="cls-2" d="M189.14,507.6l20.4,26.4C199.74,527.7,192.14,518.7,189.14,507.6Z"/><g id="_Radial_Repeat_" data-name="&lt;Radial Repeat&gt;"><path class="cls-4" d="M140.14,483.6l3.7,7.4a71.34,71.34,0,0,1-32.4,95.5l-16.3,8.1A71.34,71.34,0,0,1-.36,562.2l-3.7-7.4a71.34,71.34,0,0,1,32.4-95.5l16.3-8.1A71.37,71.37,0,0,1,140.14,483.6Z"/><path class="cls-5" d="M117.34,492.1c-3.5-1.3-28.2-10.3-53.6,3.7-24.6,13.5-30.7,37.9-31.6,41.7"/><path class="cls-6" d="M117.34,492.1c-24.1-7-50.4-1.7-68.1,16.6a74.62,74.62,0,0,0-17.1,28.8,61.14,61.14,0,0,1,10.8-25.1c16.5-23.6,48.3-31.8,74.4-20.3Z"/><path class="cls-5" d="M20.64,566.9c3.5,1.3,28.2,10.3,53.6-3.7,24.6-13.5,30.7-37.9,31.6-41.7"/><path class="cls-6" d="M20.64,566.9c24.1,7,50.4,1.7,68.1-16.6a74.62,74.62,0,0,0,17.1-28.8A61.14,61.14,0,0,1,95,546.6c-16.5,23.5-48.3,31.8-74.4,20.3Z"/></g><g id="_Radial_Repeat_2" data-name="&lt;Radial Repeat&gt;"><path class="cls-4" d="M141.44,441.2l-.9,8.2a71.37,71.37,0,0,1-78.9,62.9l-18.1-2a71.37,71.37,0,0,1-62.9-78.9l.9-8.2a71.37,71.37,0,0,1,78.9-62.9l18.1,2A71.34,71.34,0,0,1,141.44,441.2Z"/><path class="cls-5" d="M117.74,436c-2.2-3-18.2-23.9-47.1-25.9-27.9-2-46.3,15.3-49.1,18"/><path class="cls-6" d="M117.74,436c-16.5-19-41.5-28.7-66.3-22.9a74.12,74.12,0,0,0-29.9,15,60.82,60.82,0,0,1,22.7-15.3c26.6-10.8,57.7-.6,73.5,23.2Z"/><path class="cls-5" d="M-4.06,446.7c2.2,3,18.2,23.9,47.1,25.9,27.9,2,46.3-15.3,49.1-18"/><path class="cls-6" d="M-4.06,446.7c16.5,19,41.5,28.7,66.3,22.9a74.12,74.12,0,0,0,29.9-15,60.82,60.82,0,0,1-22.7,15.3c-26.5,10.8-57.7.6-73.5-23.2Z"/></g><g id="_Radial_Repeat_3" data-name="&lt;Radial Repeat&gt;"><path class="cls-4" d="M165.54,406.3l-5.2,6.4A71.29,71.29,0,0,1,60,422.9l-14.1-11.5a71.29,71.29,0,0,1-10.2-100.3l5.2-6.4a71.29,71.29,0,0,1,100.3-10.2l14.1,11.5A71.29,71.29,0,0,1,165.54,406.3Z"/><path class="cls-5" d="M148.44,389.1c-.2-3.8-2.4-29.9-25.6-47.3-22.4-16.7-47.2-12.2-51-11.4"/><path class="cls-6" d="M148.44,389.1c-3.2-22.2-16.7-43-37.2-52.5-12.1-5.9-26-7.7-39.4-6.2a61.78,61.78,0,0,1,27.4-.6c28,5.3,48.8,30.8,49.2,59.3Z"/><path class="cls-5" d="M40.14,332.3c.2,3.8,2.4,29.9,25.6,47.3,22.4,16.7,47.2,12.2,51,11.4"/><path class="cls-6" d="M40.14,332.3c3.2,22.2,16.7,43,37.2,52.5,12.1,5.9,26,7.7,39.4,6.2a61.78,61.78,0,0,1-27.4.6c-28.1-5.4-48.8-30.8-49.2-59.3Z"/></g><g id="_Radial_Repeat_4" data-name="&lt;Radial Repeat&gt;"><path class="cls-4" d="M204.74,390l-7.9,2.6a71.31,71.31,0,0,1-89.9-45.6l-5.7-17.4a71.31,71.31,0,0,1,45.6-89.9l7.9-2.6a71.31,71.31,0,0,1,89.9,45.6l5.7,17.3A71.42,71.42,0,0,1,204.74,390Z"/><path class="cls-5" d="M199.54,366.2c1.8-3.3,14.2-26.5,4-53.6-9.8-26.2-33.1-35.8-36.8-37.2"/><path class="cls-6" d="M199.54,366.2c10.4-22.8,8.9-49.7-6.7-69.8a74.75,74.75,0,0,0-26-21,62.73,62.73,0,0,1,23.4,14.2c20.7,19.8,24.4,52.4,9.3,76.6Z"/><path class="cls-5" d="M139.24,259.9c-1.8,3.3-14.2,26.5-4,53.6,9.8,26.2,33.1,35.8,36.8,37.2"/><path class="cls-6" d="M139.24,259.9c-10.4,22.8-8.9,49.7,6.7,69.8a74.75,74.75,0,0,0,26,21,62.73,62.73,0,0,1-23.4-14.2c-20.7-19.8-24.4-52.4-9.3-76.6Z"/></g><g id="_Radial_Repeat_5" data-name="&lt;Radial Repeat&gt;"><path class="cls-4" d="M246.44,397.4l-8-2.1a71.33,71.33,0,0,1-51-87l4.6-17.6a71.33,71.33,0,0,1,87-51l8,2.1a71.33,71.33,0,0,1,51,87l-4.6,17.6A71.33,71.33,0,0,1,246.44,397.4Z"/><path class="cls-5" d="M254.94,374.6c3.3-1.8,26.2-14.6,32.3-42.9,5.9-27.4-8.5-48-10.8-51.2"/><path class="cls-6" d="M254.94,374.6c21.1-13.6,34.3-37,32.1-62.3a73.22,73.22,0,0,0-10.6-31.7,62.8,62.8,0,0,1,12,24.6c6.9,27.8-7.7,57.2-33.5,69.4Z"/><path class="cls-5" d="M261.74,252.6c-3.3,1.8-26.2,14.6-32.3,42.9-5.9,27.4,8.5,48,10.8,51.2"/><path class="cls-6" d="M261.74,252.6c-21.1,13.6-34.3,37-32.1,62.3a73.22,73.22,0,0,0,10.6,31.7,62.8,62.8,0,0,1-12-24.6c-6.8-27.8,7.7-57.2,33.5-69.4Z"/></g><g id="_Radial_Repeat_6" data-name="&lt;Radial Repeat&gt;"><path class="cls-4" d="M277.54,426.2l-5.6-6.1a71.31,71.31,0,0,1,4.2-100.8l13.4-12.3a71.31,71.31,0,0,1,100.8,4.2l5.6,6.1a71.31,71.31,0,0,1-4.2,100.8l-13.4,12.3A71.49,71.49,0,0,1,277.54,426.2Z"/><path class="cls-5" d="M297,411.6c3.8.3,30,1.9,50.4-18.6,19.8-19.8,18.8-45,18.6-48.9"/><path class="cls-6" d="M297,411.6c25.1,0,48.9-12.6,60.7-35.1a74.51,74.51,0,0,0,8.3-32.4,60.12,60.12,0,0,1-3.3,27.2c-9.3,27.1-37.4,44-65.7,40.3Z"/><path class="cls-5" d="M368.74,312.6c-3.8-.3-30-1.9-50.4,18.6-19.8,19.8-18.8,45-18.6,48.9"/><path class="cls-6" d="M368.74,312.6c-25.1,0-48.9,12.6-60.7,35.1a74.51,74.51,0,0,0-8.3,32.4,60.12,60.12,0,0,1,3.3-27.2c9.2-27.1,37.4-44,65.7-40.3Z"/></g><g id="_Radial_Repeat_7" data-name="&lt;Radial Repeat&gt;"><path class="cls-4" d="M288.14,467.2l-1.4-8.2a71.3,71.3,0,0,1,58-82.5l17.9-3.1a71.3,71.3,0,0,1,82.5,58l1.4,8.2a71.3,71.3,0,0,1-58,82.5l-17.9,3.1A71.35,71.35,0,0,1,288.14,467.2Z"/><path class="cls-5" d="M312.44,465.5c3,2.3,24.2,17.8,52.5,11.6,27.4-6,40.1-27.7,42-31.1"/><path class="cls-6" d="M312.44,465.5c21.2,13.6,47.9,15.9,70.1,3.3A75.25,75.25,0,0,0,407,446a62.18,62.18,0,0,1-17.4,21.1c-22.6,17.8-55.4,16.8-77.2-1.6Z"/><path class="cls-5" d="M426.24,421c-3-2.3-24.2-17.8-52.5-11.6-27.4,6-40.1,27.7-42,31.1"/><path class="cls-6" d="M426.24,421c-21.2-13.6-47.9-15.9-70.1-3.3a75.25,75.25,0,0,0-24.5,22.8A62.18,62.18,0,0,1,349,419.4c22.6-17.8,55.4-16.8,77.2,1.6Z"/></g><g id="_Radial_Repeat_8" data-name="&lt;Radial Repeat&gt;"><path class="cls-4" d="M274.94,507.5l3.2-7.6a71.33,71.33,0,0,1,93.4-38.1l16.8,7.1a71.33,71.33,0,0,1,38.1,93.4l-3.2,7.6a71.33,71.33,0,0,1-93.4,38.1L313,600.9A71.24,71.24,0,0,1,274.94,507.5Z"/><path class="cls-5" d="M296.24,519.2c1.3,3.5,10.7,28.1,37.9,38.1,26.3,9.7,48.7-1.6,52.2-3.4"/><path class="cls-6" d="M296.24,519.2c10.5,22.8,31.7,39.2,57.1,40.7a74.51,74.51,0,0,0,32.9-5.9,61.6,61.6,0,0,1-26.1,8.3c-28.5,2.7-55.5-15.9-63.9-43.1Z"/><path class="cls-5" d="M416,543.2c-1.3-3.5-10.7-28.1-37.9-38.1-26.3-9.7-48.7,1.6-52.2,3.4"/><path class="cls-6" d="M416,543.2c-10.5-22.8-31.7-39.2-57.1-40.7a74.51,74.51,0,0,0-32.9,5.9,61.6,61.6,0,0,1,26.1-8.3c28.5-2.7,55.5,15.9,63.9,43.1Z"/></g><g id="_Radial_Repeat_9" data-name="&lt;Radial Repeat&gt;"><path class="cls-4" d="M241.94,534.2l6.8-4.7a71.41,71.41,0,0,1,99.2,18.4l10.3,15a71.41,71.41,0,0,1-18.4,99.2l-6.8,4.7a71.41,71.41,0,0,1-99.2-18.4l-10.3-15A71.41,71.41,0,0,1,241.94,534.2Z"/><path class="cls-5" d="M253.64,555.6c-.8,3.7-6.1,29.4,11.2,52.5,16.8,22.4,41.8,25,45.7,25.3"/><path class="cls-6" d="M253.64,555.6c-3.5,24.9,5.5,50.2,26.1,65.1a74,74,0,0,0,30.9,12.8,62.24,62.24,0,0,1-26.4-7.1c-25.6-13.1-38.3-43.4-30.6-70.8Z"/><path class="cls-5" d="M341.44,640.6c.8-3.7,6.1-29.4-11.2-52.5-16.8-22.4-41.8-25-45.7-25.3"/><path class="cls-6" d="M341.44,640.6c3.5-24.9-5.5-50.2-26.1-65.1a74,74,0,0,0-30.9-12.8,62.24,62.24,0,0,1,26.4,7.1c25.5,13,38.2,43.3,30.6,70.8Z"/></g><g id="_Radial_Repeat_10" data-name="&lt;Radial Repeat&gt;"><path class="cls-4" d="M199.84,538.9l8.3-.3a71.28,71.28,0,0,1,73.4,69.1l.6,18.2A71.28,71.28,0,0,1,213,699.3l-8.3.3a71.28,71.28,0,0,1-73.4-69.1l-.6-18.2A71.22,71.22,0,0,1,199.84,538.9Z"/><path class="cls-5" d="M198,563.1c-2.7,2.6-21.1,21.4-18.9,50.3,2,27.9,21.7,43.6,24.8,46"/><path class="cls-6" d="M198,563.1c-16.4,19-22.5,45.2-13.2,68.9a73,73,0,0,0,19.1,27.5,62.42,62.42,0,0,1-18.4-20.2c-14.5-24.9-8.8-57.2,12.5-76.2Z"/><path class="cls-5" d="M225.94,682.1c2.7-2.6,21.1-21.4,18.9-50.3-2-27.9-21.7-43.6-24.8-46"/><path class="cls-6" d="M225.94,682.1c16.4-19,22.5-45.2,13.2-68.9A73,73,0,0,0,220,585.7a62.42,62.42,0,0,1,18.4,20.2c14.5,24.9,8.8,57.2-12.5,76.2Z"/></g><g id="_Radial_Repeat_11" data-name="&lt;Radial Repeat&gt;"><path class="cls-4" d="M161.84,520l7.1,4.3a71.31,71.31,0,0,1,24.4,97.9l-9.4,15.6A71.31,71.31,0,0,1,86,662.2l-7.1-4.3A71.31,71.31,0,0,1,54.54,560l9.4-15.6A71.31,71.31,0,0,1,161.84,520Z"/><path class="cls-5" d="M147.24,539.4c-3.7.8-29.3,6.6-43.1,32.1-13.4,24.6-5.4,48.4-4,52.1"/><path class="cls-6" d="M147.24,539.4c-22.8,6.7-41.8,24.2-47.6,47.5a73.59,73.59,0,0,0,.4,36.7,60.83,60.83,0,0,1-4.5-27c1.3-28.6,23.5-52.7,51.7-57.2Z"/><path class="cls-5" d="M106.44,654.6c3.7-.8,29.3-6.6,43.1-32.1,13.4-24.6,5.4-48.4,4-52.1"/><path class="cls-6" d="M106.44,654.6c22.8-6.7,41.8-24.2,47.6-47.5a73.59,73.59,0,0,0-.4-36.7,60.83,60.83,0,0,1,4.5,27c-1.3,28.7-23.6,52.8-51.7,57.2Z"/></g><path class="cls-7" d="M213,560.7h0a91.76,91.76,0,0,1-91.7-91.7h0A91.76,91.76,0,0,1,213,377.3h0a91.76,91.76,0,0,1,91.7,91.7h0A91.69,91.69,0,0,1,213,560.7Z"/><path class="cls-2" d="M1862.19,1049.77h0l17.6-9.5a14.68,14.68,0,0,1,1.5.9,18.39,18.39,0,0,1,2.5,1.9,27.2,27.2,0,0,1,4.6,5.3c.8,1.2,1.8,2.8,2.8,4.6s2.3,3.8,3.5,6.1h0a55.24,55.24,0,0,1,3.8,12.5c.2,1.3.5,3.4,1.1,6.3.3,1.4.6,3,1.1,4.8s1.1,3.6,1.8,5.6c0,.1.1.2.1.3,1.6,4.3,3,7.4,3.3,8a82.27,82.27,0,0,0,8.5,12.9c2.6,3.1,4.4,4.9,4.4,4.9,1.3,1.2,2.5,2.3,3.8,3.3a40.56,40.56,0,0,0,3.6,2.6,66.61,66.61,0,0,0,6.7,3.7l-11.6,11.3-.3.6c-.1,0-.1-.1-.2-.1-2.2-1.3-4.1-2.5-5.9-3.6-.9-.6-1.7-1.1-2.5-1.6s-1.5-1.1-2.2-1.6a65.85,65.85,0,0,1-7.2-6.2l-.1-.1h0c-.6-.7-1.3-1.4-2-2.1l-2.1-2.4a70.51,70.51,0,0,1-4.3-5.7,49.39,49.39,0,0,1-8.4-23.1,42.76,42.76,0,0,0-1.9-8.4c-.4-1.2-.8-2.3-1.3-3.5a30.54,30.54,0,0,0-1.3-3.2c-.9-2-1.8-3.9-2.6-5.4s-1.5-2.7-2.1-3.6-.8-1.3-.8-1.3a49.43,49.43,0,0,0-5.9-7.2,62.63,62.63,0,0,0-5.9-5.1l-1.5-1.2h-.1A6.82,6.82,0,0,0,1862.19,1049.77Z"/><path class="cls-2" d="M1903,1122.47h0a52.4,52.4,0,0,1,9.6,1.8c2,.6,3.9,1.2,5.9,1.7l6,1.5a63.62,63.62,0,0,1-3.1,7.6l-.3.6c-.1,0-.1-.1-.2-.1l-24.5,23.9a46.68,46.68,0,0,1-16.6,3.7,47.46,47.46,0,0,1-17.9-3c-4.3-1.5-8.5-3.2-12.8-5a46.43,46.43,0,0,1,21.5-26.1,52.36,52.36,0,0,1,15.7-5.9,57.11,57.11,0,0,1,8.3-1.1,29.44,29.44,0,0,1,4.2,0C1900.09,1122.27,1901.59,1122.27,1903,1122.47Z"/><path class="cls-3" d="M1868,1148.57a50.84,50.84,0,0,0,33.6-14.9,29.38,29.38,0,0,1-14,13.4A28.76,28.76,0,0,1,1868,1148.57Z"/><path class="cls-2" d="M1853.29,1041.87c-1.4-1.4-2.5-2.5-4.7-4.8l14.8-8.1c.4.4.8.7,1.2,1.1a49.71,49.71,0,0,0,4.6,3.7q2.25,1.65,4.5,3a81.41,81.41,0,0,0,7.8,4.3l-17.1,10.4c-.5-.4-.9-.7-1.5-1.2a.1.1,0,0,1-.1-.1,1.21,1.21,0,0,1-.5-.5A91.55,91.55,0,0,1,1853.29,1041.87Z"/><path class="cls-2" d="M1819.19,1053.27l29.2-16.1A51.07,51.07,0,0,1,1819.19,1053.27Z"/><path class="cls-2" d="M1812.29,940h0l19.3-5.4a13.1,13.1,0,0,1,1.3,1.2c.6.7,1.3,1.5,2,2.4a25.52,25.52,0,0,1,3.3,6.3q.75,2.1,1.8,5.1c.3,1,.6,2.1,1,3.2s.7,2.4,1.1,3.6h0a49.83,49.83,0,0,1,.8,13.1c-.1,1.3-.3,3.5-.4,6.4a70.05,70.05,0,0,0,.3,10.9v.3c.5,4.5,1.2,7.9,1.3,8.6a55.38,55.38,0,0,0,2.4,8.1c.9,2.5,1.8,4.7,2.6,6.5s1.6,3.3,2.1,4.3a16.34,16.34,0,0,0,.9,1.6,65.36,65.36,0,0,0,5.6,7.6,66.16,66.16,0,0,0,5.5,5.3l-14.1,7.8c-.1.2-.3.3-.5.5l-.2-.2c-1.7-1.8-3.3-3.5-4.7-5s-2.6-3-3.7-4.3a57.86,57.86,0,0,1-5.4-7.8c0-.1,0-.1-.1-.1h0a98.33,98.33,0,0,1-5.6-12,51.08,51.08,0,0,1-3-16.5c0-6.7,1.3-8.8.6-16.5a67.18,67.18,0,0,0-2.2-13c-.4-1.7-.9-3-1.2-4l-.5-1.5a56.4,56.4,0,0,0-8.7-14.7,17.38,17.38,0,0,0-1.3-1.5l-.1-.1Z"/><path class="cls-2" d="M1834.59,1020.07h0a47.38,47.38,0,0,1,8.8,4.2c3.5,2.1,7,4.2,10.6,6.2a53.36,53.36,0,0,1-5,6.5c-.1.2-.3.3-.5.5l-.2-.2-30,16.6a46.5,46.5,0,0,1-17-.6,50.45,50.45,0,0,1-16.4-7.2c-3.7-2.5-7.3-5.1-11-7.8a46.74,46.74,0,0,1,27.4-19.7A54.08,54.08,0,0,1,1834.59,1020.07Z"/><path class="cls-2" d="M1831.49,987.47l2-12.1a35.74,35.74,0,0,1,1.1-4.7c.5-1.5,1-3,1.6-4.5a41.12,41.12,0,0,1,4.6-8.2,45.76,45.76,0,0,1,6.1-7.1,56.32,56.32,0,0,1,44.4-15.1l-2.7,10.9a53.75,53.75,0,0,1-3,8.5,61.78,61.78,0,0,1-4.5,7.9,57,57,0,0,1-13,13.4C1858,984,1845.09,988.57,1831.49,987.47Z"/><path class="cls-3" d="M1794.19,1036.37a51.16,51.16,0,0,0,18.7.3,53.32,53.32,0,0,0,17.5-6.3,30.25,30.25,0,0,1-26.9,9.4A23.73,23.73,0,0,1,1794.19,1036.37Z"/><path class="cls-3" d="M1847.19,967.87a63,63,0,0,0,16.3-9,62.11,62.11,0,0,0,12.7-12.9c-1.7,5.6-5.8,10.9-10.9,14.8A32.16,32.16,0,0,1,1847.19,967.87Z"/><path class="cls-2" d="M1805.29,930.27c-1.1-1.7-1.9-3-3.6-5.7l16.2-4.9c.3.5.7.9,1,1.4a83.82,83.82,0,0,0,7.4,8.6,81.6,81.6,0,0,0,6.7,6l-19,6.3c-.4-.5-.8-.9-1.2-1.4l-.1-.1c-.1-.2-.3-.4-.4-.6C1810.29,937.27,1807.79,934.07,1805.29,930.27Z"/><path class="cls-2" d="M1769.69,934.27l31.9-9.6A52.31,52.31,0,0,1,1769.69,934.27Z"/><path class="cls-2" d="M1778.09,824.07h0l19.2-5.5,1.3,1.3a19.73,19.73,0,0,1,2.1,2.6,25,25,0,0,1,3.3,6.8,107.8,107.8,0,0,1,3.4,12.9h0a52,52,0,0,1-.1,13.7,135.54,135.54,0,0,0-2.1,17.6v.3c-.1,4.7,0,8.1.1,8.8a90.24,90.24,0,0,0,4.3,21.9,64.55,64.55,0,0,0,8.3,15.1l-15.5,4.6c-.2.1-.4.3-.6.4,0-.1-.1-.1-.1-.2-5.3-8.5-8.1-13.7-9.9-19.3,0-.1,0-.1-.1-.1h0c-2.3-7-5.3-16.8-3.7-29.1.9-6.6,2.4-8.5,2.6-16.1a61.58,61.58,0,0,0-1.1-13.1c-.7-3.4-1.3-5.5-1.3-5.5a46,46,0,0,0-8.4-14.9,8.64,8.64,0,0,0-1.3-1.4l-.1-.1A.91.91,0,0,0,1778.09,824.07Z"/><path class="cls-2" d="M1791.79,905h0a43.87,43.87,0,0,1,7.8,5.8l9.1,8.2a63.12,63.12,0,0,1-6.3,5.3c-.2.1-.4.3-.6.4,0-.1-.1-.1-.1-.2l-32.8,9.9a48.47,48.47,0,0,1-16.3-3.8,45.09,45.09,0,0,1-7.5-4,42.91,42.91,0,0,1-6.8-5.3l-9.1-8.5C1746.29,896.17,1772.59,893.47,1791.79,905Z"/><path class="cls-2" d="M1794.19,872.57l3.4-11.8a52.19,52.19,0,0,1,22.8-29.8,49.7,49.7,0,0,1,37.7-6.4h0c-1,4.2-2,8.4-3,12.5a48,48,0,0,1-23.1,29.7A53.55,53.55,0,0,1,1794.19,872.57Z"/><path class="cls-3" d="M1749.09,913.67a55.68,55.68,0,0,0,36.5.4C1775.19,922,1758.89,921.87,1749.09,913.67Z"/><path class="cls-3" d="M1811.89,854.67a54.84,54.84,0,0,0,30.5-20.1C1838.69,847.07,1825,855.67,1811.89,854.67Z"/><path class="cls-2" d="M1770.89,814.77c-1.1-1.6-2.1-2.8-3.9-5.3l15.8-6c.4.5.8.9,1.1,1.3a123.69,123.69,0,0,0,14.9,15l-19,6.4c-.4-.5-.8-.9-1.2-1.4l-.1-.1c-.1-.2-.3-.4-.4-.6C1776.09,821.47,1773.59,818.37,1770.89,814.77Z"/><path class="cls-2" d="M1735.79,821.47l31.2-11.9C1757.89,816.87,1746.79,820.57,1735.79,821.47Z"/><path class="cls-2" d="M1718.89,721.67h0c4.9-4.6,9.7-9.2,14.6-13.7a18.88,18.88,0,0,0,1.8.6,19.08,19.08,0,0,1,3.2,1.6,28,28,0,0,1,6.3,5.3,79.47,79.47,0,0,1,8.8,11.5h0a40.77,40.77,0,0,1,3.2,7.1c.4,1.2.8,2.3,1.1,3.4s.5,2.2.7,3.3c.2,1.4.6,3.7,1.1,6.8s1.3,6.9,2.2,11.4a.37.37,0,0,0,.1.3c1.1,4.7,2,8.1,2.2,8.8a153.71,153.71,0,0,0,5.4,15.1c.8,1.9,1.5,3.4,2,4.5s.8,1.7.8,1.7a75.4,75.4,0,0,0,5.1,8.3c1.7,2.4,3.3,4.4,4.8,6.2l-15.1,5.8c-.2.1-.3.3-.5.4,0-.1-.1-.1-.1-.2-5.8-7.9-9.2-12.4-11.7-17.4a.1.1,0,0,0-.1-.1h0c-.8-1.6-1.7-3.3-2.6-5.2s-1.8-3.9-2.6-6.1a62.8,62.8,0,0,1-3.8-15.5c-.4-3.2-.4-5.4-.5-7.7a36.22,36.22,0,0,0-1.4-8.4,12.09,12.09,0,0,1-.5-1.8c-.2-.6-.4-1.1-.6-1.7a30.9,30.9,0,0,0-1.4-3.2,42.12,42.12,0,0,0-2.9-5.3c-.9-1.5-1.7-2.7-2.3-3.5a12.24,12.24,0,0,0-1-1.2,37,37,0,0,0-7.1-6.3c-1.2-.8-2.4-1.6-3.5-2.2s-2.3-1.1-3.3-1.6a13.36,13.36,0,0,0-1.8-.7h-.1A.55.55,0,0,0,1718.89,721.67Z"/><path class="cls-2" d="M1755.09,792.17h0a42.17,42.17,0,0,1,8.4,4.4c3.3,2.3,6.6,4.7,9.9,7.1a63.5,63.5,0,0,1-5.8,5.8c-.2.1-.3.3-.5.4,0-.1-.1-.1-.1-.2l-32,12.2a61.51,61.51,0,0,1-16.1-1.1,58.88,58.88,0,0,1-7.5-2,42.34,42.34,0,0,1-6.9-3c-1.5-.8-3.1-1.6-4.6-2.3a46.87,46.87,0,0,0-4.6-2.1,75.6,75.6,0,0,1,12.8-11.1,66.51,66.51,0,0,1,15-7.7C1733.39,788.77,1744.79,788.27,1755.09,792.17Z"/><path class="cls-2" d="M1751.09,760.67c0-4,.1-8.2-.1-12.3a41.7,41.7,0,0,1,0-5c.1-1.7.2-3.3.4-4.9a63.73,63.73,0,0,1,1.8-9.7,58.85,58.85,0,0,1,7.9-17.7,43.81,43.81,0,0,1,13.6-13.5,39.24,39.24,0,0,1,19.6-5.8c.6,2.6,1.3,5.1,1.9,7.7s1,5.1,1.5,7.6a45,45,0,0,1-1.2,22.1,41,41,0,0,1-10.1,16.8C1777.39,755.07,1764.59,760.07,1751.09,760.67Z"/><path class="cls-3" d="M1714.39,807.77a71.76,71.76,0,0,0,17.9-.6,68.76,68.76,0,0,0,17.8-5.4,36.55,36.55,0,0,1-27.2,8.1,31.09,31.09,0,0,1-4.4-.8A21.94,21.94,0,0,1,1714.39,807.77Z"/><path class="cls-3" d="M1762.79,738.07a48.87,48.87,0,0,0,13.7-12.7,45.75,45.75,0,0,0,7.6-17.7,27.21,27.21,0,0,1-.6,10.7,25.69,25.69,0,0,1-4.4,9.1A27.44,27.44,0,0,1,1762.79,738.07Z"/><path class="cls-2" d="M1708.29,717.07c-1.8-.7-3.2-1.3-5.9-2.5l10.3-13.4c.6.2,1.1.4,1.7.6q3.15,1.2,6,2.1c1.9.6,3.8,1.3,5.6,1.8,3.6,1.1,6.7,2,9.5,2.7l-14.1,14.2c-.5-.2-1.1-.5-1.7-.7h-.1l-.6-.3c-.7-.3-1.5-.7-2.3-1s-1.7-.7-2.6-1.1-1.8-.8-2.8-1.2Z"/><path class="cls-2" d="M1682,741.07l20.4-26.4C1698.29,725.57,1690.39,734.37,1682,741.07Z"/><g id="_Radial_Repeat_12" data-name="&lt;Radial Repeat&gt;"><path class="cls-4" d="M1781.09,652.07l-3.7,7.4a71.34,71.34,0,0,0,32.4,95.5l16.3,8.1a71.34,71.34,0,0,0,95.5-32.4l3.7-7.4a71.34,71.34,0,0,0-32.4-95.5l-16.3-8.1A71.34,71.34,0,0,0,1781.09,652.07Z"/><path class="cls-5" d="M1803.89,660.57c3.5-1.3,28.2-10.3,53.6,3.7,24.6,13.5,30.7,37.9,31.6,41.7"/><path class="cls-6" d="M1803.89,660.57c26.1-11.5,57.9-3.2,74.4,20.2a63.1,63.1,0,0,1,10.8,25.1,74.13,74.13,0,0,0-17.1-28.8c-17.7-18.2-44-23.6-68.1-16.5Z"/><path class="cls-5" d="M1900.49,735.37c-3.5,1.3-28.2,10.3-53.6-3.7-24.6-13.5-30.7-37.9-31.6-41.7"/><path class="cls-6" d="M1900.49,735.37c-26.1,11.5-57.9,3.2-74.4-20.2a63.1,63.1,0,0,1-10.8-25.1,74.13,74.13,0,0,0,17.1,28.8c17.7,18.2,44,23.5,68.1,16.5Z"/></g><g id="_Radial_Repeat_13" data-name="&lt;Radial Repeat&gt;"><path class="cls-4" d="M1779.69,609.67l.9,8.2a71.37,71.37,0,0,0,78.9,62.9l18.1-2a71.37,71.37,0,0,0,62.9-78.9l-.9-8.2a71.37,71.37,0,0,0-78.9-62.9l-18.1,2A71.41,71.41,0,0,0,1779.69,609.67Z"/><path class="cls-5" d="M1803.49,604.47c2.2-3,18.2-23.9,47.1-25.9,27.9-2,46.3,15.3,49.1,18"/><path class="cls-6" d="M1803.49,604.47c15.8-23.8,46.9-34,73.5-23.3a62.86,62.86,0,0,1,22.7,15.3,74.12,74.12,0,0,0-29.9-15c-24.8-5.7-49.9,4.1-66.3,23Z"/><path class="cls-5" d="M1925.19,615.17c-2.2,3-18.2,23.9-47.1,25.9-27.9,2-46.3-15.3-49.1-18"/><path class="cls-6" d="M1925.19,615.17c-15.8,23.8-46.9,34-73.5,23.3a62.86,62.86,0,0,1-22.7-15.3,74.12,74.12,0,0,0,29.9,15c24.8,5.7,49.8-4,66.3-23Z"/></g><g id="_Radial_Repeat_14" data-name="&lt;Radial Repeat&gt;"><path class="cls-4" d="M1755.59,574.77l5.2,6.4a71.29,71.29,0,0,0,100.3,10.2l14.1-11.5a71.29,71.29,0,0,0,10.2-100.3l-5.2-6.4a71.29,71.29,0,0,0-100.3-10.2l-14.1,11.5A71.29,71.29,0,0,0,1755.59,574.77Z"/><path class="cls-5" d="M1772.79,557.57c.2-3.8,2.4-29.9,25.6-47.3,22.4-16.7,47.2-12.2,51-11.4"/><path class="cls-6" d="M1772.79,557.57c.4-28.5,21.1-54,49.3-59.3a63.32,63.32,0,0,1,27.4.6c-13.4-1.5-27.3.3-39.4,6.2-20.6,9.6-34.1,30.3-37.3,52.5Z"/><path class="cls-5" d="M1881,500.77c-.2,3.8-2.4,29.9-25.6,47.3-22.4,16.7-47.2,12.2-51,11.4"/><path class="cls-6" d="M1881,500.77c-.4,28.5-21.1,54-49.3,59.3a63.32,63.32,0,0,1-27.4-.6c13.4,1.5,27.3-.3,39.4-6.2,20.6-9.6,34.1-30.3,37.3-52.5Z"/></g><g id="_Radial_Repeat_15" data-name="&lt;Radial Repeat&gt;"><path class="cls-4" d="M1716.49,558.47l7.9,2.6a71.31,71.31,0,0,0,89.9-45.6l5.7-17.3a71.31,71.31,0,0,0-45.6-89.9l-7.9-2.6a71.31,71.31,0,0,0-89.9,45.6l-5.7,17.3A71.23,71.23,0,0,0,1716.49,558.47Z"/><path class="cls-5" d="M1721.59,534.67c-1.8-3.3-14.2-26.5-4-53.6,9.8-26.2,33.1-35.8,36.8-37.2"/><path class="cls-6" d="M1721.59,534.67c-15.1-24.2-11.4-56.8,9.4-76.5a61.19,61.19,0,0,1,23.4-14.2,73.65,73.65,0,0,0-26,21c-15.6,20-17.2,46.8-6.8,69.7Z"/><path class="cls-5" d="M1781.89,428.37c1.8,3.3,14.2,26.5,4,53.6-9.8,26.2-33.1,35.8-36.8,37.2"/><path class="cls-6" d="M1781.89,428.37c15.1,24.2,11.4,56.8-9.4,76.5a61.19,61.19,0,0,1-23.4,14.2,73.65,73.65,0,0,0,26-21c15.7-20,17.2-46.8,6.8-69.7Z"/></g><g id="_Radial_Repeat_16" data-name="&lt;Radial Repeat&gt;"><path class="cls-4" d="M1674.69,565.87l8-2.1a71.33,71.33,0,0,0,51-87l-4.6-17.6a71.33,71.33,0,0,0-87-51l-8,2.1a71.33,71.33,0,0,0-51,87l4.6,17.6A71.38,71.38,0,0,0,1674.69,565.87Z"/><path class="cls-5" d="M1666.19,543.07c-3.3-1.8-26.2-14.6-32.3-42.9-5.9-27.4,8.5-48,10.8-51.2"/><path class="cls-6" d="M1666.19,543.07c-25.8-12.2-40.3-41.6-33.5-69.5a61.46,61.46,0,0,1,12-24.6,74.55,74.55,0,0,0-10.6,31.7c-2.2,25.4,11,48.8,32.1,62.4Z"/><path class="cls-5" d="M1659.49,421.07c3.3,1.8,26.2,14.6,32.3,42.9,5.9,27.4-8.5,48-10.8,51.2"/><path class="cls-6" d="M1659.49,421.07c25.8,12.2,40.3,41.6,33.5,69.5a61.46,61.46,0,0,1-12,24.6,74.55,74.55,0,0,0,10.6-31.7c2.2-25.4-11-48.8-32.1-62.4Z"/></g><g id="_Radial_Repeat_17" data-name="&lt;Radial Repeat&gt;"><path class="cls-4" d="M1643.59,594.67l5.6-6.1a71.31,71.31,0,0,0-4.2-100.8l-13.4-12.3a71.31,71.31,0,0,0-100.8,4.2l-5.6,6.1a71.31,71.31,0,0,0,4.2,100.8l13.4,12.3A71.4,71.4,0,0,0,1643.59,594.67Z"/><path class="cls-5" d="M1624.09,580.07c-3.8.3-30,1.9-50.4-18.6-19.8-19.8-18.8-45-18.6-48.9"/><path class="cls-6" d="M1624.09,580.07c-28.3,3.7-56.4-13.2-65.7-40.3a62.83,62.83,0,0,1-3.3-27.2,74.51,74.51,0,0,0,8.3,32.4c11.9,22.6,35.6,35.1,60.7,35.1Z"/><path class="cls-5" d="M1552.49,481.07c3.8-.3,30-1.9,50.4,18.6,19.8,19.8,18.8,45,18.6,48.9"/><path class="cls-6" d="M1552.49,481.07c28.3-3.7,56.4,13.2,65.7,40.3a62.83,62.83,0,0,1,3.3,27.2,74.51,74.51,0,0,0-8.3-32.4c-11.8-22.5-35.6-35-60.7-35.1Z"/></g><g id="_Radial_Repeat_18" data-name="&lt;Radial Repeat&gt;"><path class="cls-4" d="M1633,635.67l1.4-8.2a71.3,71.3,0,0,0-58-82.5l-17.9-3.1a71.3,71.3,0,0,0-82.5,58l-1.4,8.2a71.3,71.3,0,0,0,58,82.5l17.9,3.1A71.3,71.3,0,0,0,1633,635.67Z"/><path class="cls-5" d="M1608.79,634c-3,2.3-24.2,17.8-52.5,11.6-27.4-6-40.1-27.7-42-31.1"/><path class="cls-6" d="M1608.79,634c-21.8,18.4-54.6,19.4-77.1,1.6a62.18,62.18,0,0,1-17.4-21.1,74.26,74.26,0,0,0,24.5,22.8c22,12.6,48.8,10.3,70-3.3Z"/><path class="cls-5" d="M1494.89,589.47c3-2.3,24.2-17.8,52.5-11.6,27.4,6,40.1,27.7,42,31.1"/><path class="cls-6" d="M1494.89,589.47c21.8-18.4,54.6-19.4,77.1-1.6a62.18,62.18,0,0,1,17.4,21.1,74.26,74.26,0,0,0-24.5-22.8c-22.1-12.6-48.8-10.3-70,3.3Z"/></g><g id="_Radial_Repeat_19" data-name="&lt;Radial Repeat&gt;"><path class="cls-4" d="M1646.29,676l-3.2-7.6a71.33,71.33,0,0,0-93.4-38.1l-16.8,7.1a71.33,71.33,0,0,0-38.1,93.4l3.2,7.6a71.33,71.33,0,0,0,93.4,38.1l16.8-7.1A71.33,71.33,0,0,0,1646.29,676Z"/><path class="cls-5" d="M1625,687.67c-1.3,3.5-10.7,28.1-37.9,38.1-26.3,9.7-48.7-1.6-52.2-3.4"/><path class="cls-6" d="M1625,687.67c-8.4,27.3-35.5,45.8-64,43a63.49,63.49,0,0,1-26.1-8.3,74.51,74.51,0,0,0,32.9,5.9c25.4-1.4,46.7-17.8,57.2-40.6Z"/><path class="cls-5" d="M1505.09,711.67c1.3-3.5,10.7-28.1,37.9-38.1,26.3-9.7,48.7,1.6,52.2,3.4"/><path class="cls-6" d="M1505.09,711.67c8.4-27.3,35.5-45.8,64-43a63.49,63.49,0,0,1,26.1,8.3,74.51,74.51,0,0,0-32.9-5.9c-25.5,1.4-46.7,17.8-57.2,40.6Z"/></g><g id="_Radial_Repeat_20" data-name="&lt;Radial Repeat&gt;"><path class="cls-4" d="M1679.19,702.67l-6.8-4.7a71.41,71.41,0,0,0-99.2,18.4l-10.3,15a71.41,71.41,0,0,0,18.4,99.2l6.8,4.7a71.41,71.41,0,0,0,99.2-18.4l10.3-15A71.23,71.23,0,0,0,1679.19,702.67Z"/><path class="cls-5" d="M1667.59,724.07c.8,3.7,6.1,29.4-11.2,52.5-16.8,22.4-41.8,25-45.7,25.3"/><path class="cls-6" d="M1667.59,724.07c7.7,27.5-5.1,57.8-30.6,70.8a63,63,0,0,1-26.4,7.1,74,74,0,0,0,30.9-12.8c20.6-14.9,29.6-40.2,26.1-65.1Z"/><path class="cls-5" d="M1579.79,809.07c-.8-3.7-6.1-29.4,11.2-52.5,16.8-22.4,41.8-25,45.7-25.3"/><path class="cls-6" d="M1579.79,809.07c-7.7-27.5,5.1-57.8,30.6-70.8a63,63,0,0,1,26.4-7.1,74,74,0,0,0-30.9,12.8c-20.6,14.9-29.7,40.2-26.1,65.1Z"/></g><g id="_Radial_Repeat_21" data-name="&lt;Radial Repeat&gt;"><path class="cls-4" d="M1721.39,707.37l-8.3-.3a71.28,71.28,0,0,0-73.4,69.1l-.6,18.2a71.28,71.28,0,0,0,69.1,73.4l8.3.3a71.28,71.28,0,0,0,73.4-69.1l.6-18.2A71.35,71.35,0,0,0,1721.39,707.37Z"/><path class="cls-5" d="M1723.09,731.57c2.7,2.6,21.1,21.4,18.9,50.3-2,27.9-21.7,43.6-24.8,46"/><path class="cls-6" d="M1723.09,731.57c21.3,19,27,51.3,12.6,76.1a60.45,60.45,0,0,1-18.4,20.2,75.35,75.35,0,0,0,19.1-27.5c9.2-23.6,3.1-49.8-13.3-68.8Z"/><path class="cls-5" d="M1695.19,850.57c-2.7-2.6-21.1-21.4-18.9-50.3,2-27.9,21.7-43.6,24.8-46"/><path class="cls-6" d="M1695.19,850.57c-21.3-19-27-51.3-12.6-76.1a60.45,60.45,0,0,1,18.4-20.2,75.35,75.35,0,0,0-19.1,27.5c-9.2,23.7-3.1,49.8,13.3,68.8Z"/></g><g id="_Radial_Repeat_22" data-name="&lt;Radial Repeat&gt;"><path class="cls-4" d="M1759.29,688.47l-7.1,4.3a71.31,71.31,0,0,0-24.4,97.9l9.4,15.6a71.31,71.31,0,0,0,97.9,24.4l7.1-4.3a71.31,71.31,0,0,0,24.4-97.9l-9.4-15.6A71.4,71.4,0,0,0,1759.29,688.47Z"/><path class="cls-5" d="M1773.89,708c3.7.8,29.3,6.6,43.1,32.1,13.4,24.6,5.4,48.4,4,52.1"/><path class="cls-6" d="M1773.89,708c28.2,4.4,50.4,28.6,51.7,57.2a63.78,63.78,0,0,1-4.5,27,73.18,73.18,0,0,0,0-38.3c-6.4-22.7-24.8-39.3-47.2-45.9Z"/><path class="cls-5" d="M1814.79,823.17c-3.7-.8-29.3-6.6-43.1-32.1-13.4-24.6-5.4-48.4-4-52.1"/><path class="cls-6" d="M1814.79,823.17c-28.2-4.4-50.4-28.6-51.7-57.2a63.78,63.78,0,0,1,4.5-27,73.18,73.18,0,0,0,0,38.3c6.4,22.6,24.8,39.3,47.2,45.9Z"/></g><path class="cls-7" d="M1708.09,729.17h0a91.76,91.76,0,0,0,91.7-91.7h0a91.76,91.76,0,0,0-91.7-91.7h0a91.76,91.76,0,0,0-91.7,91.7h0A91.76,91.76,0,0,0,1708.09,729.17Z"/></g></svg>