<svg xmlns="http://www.w3.org/2000/svg" viewBox="0 0 937 69.18"><defs><style>.cls-1{fill:#2e2399;}.cls-2{fill:#f3f2fb;}.cls-3{fill:#bdedff;}.cls-4{fill:#0b1737;}</style></defs><g id="Layer_2" data-name="Layer 2"><g id="Layer_5" data-name="Layer 5"><rect class="cls-1" width="72.09" height="69.18" rx="34.59"/><rect class="cls-2" x="10.48" y="8.8" width="49.6" height="47.6" rx="23.8"/><rect class="cls-3" x="21.77" y="16.43" width="29.48" height="28.29" rx="14.14"/><rect class="cls-4" x="27.38" y="22.17" width="16.92" height="17.37" rx="8.46"/><rect class="cls-1" x="86.49" width="72.09" height="69.18" rx="34.59" transform="translate(245.07 69.18) rotate(180)"/><rect class="cls-2" x="98.5" y="12.78" width="49.6" height="47.6" rx="23.8" transform="translate(246.61 73.17) rotate(-180)"/><rect class="cls-3" x="107.33" y="24.46" width="29.48" height="28.29" rx="14.14" transform="translate(244.15 77.21) rotate(-180)"/><rect class="cls-4" x="114.28" y="29.65" width="16.92" height="17.37" rx="8.46" transform="translate(245.49 76.66) rotate(-180)"/><rect class="cls-1" x="172.98" width="72.09" height="69.18" rx="34.59"/><rect class="cls-2" x="183.46" y="8.8" width="49.6" height="47.6" rx="23.8"/><rect class="cls-3" x="194.75" y="16.43" width="29.48" height="28.29" rx="14.14"/><rect class="cls-4" x="200.36" y="22.17" width="16.92" height="17.37" rx="8.46"/><rect class="cls-1" x="259.47" width="72.09" height="69.18" rx="34.59" transform="translate(591.04 69.18) rotate(-180)"/><rect class="cls-2" x="271.49" y="8.8" width="49.6" height="47.6" rx="23.8" transform="translate(592.57 65.19) rotate(180)"/><rect class="cls-3" x="280.32" y="16.43" width="29.48" height="28.29" rx="14.14" transform="translate(590.11 61.15) rotate(180)"/><rect class="cls-4" x="287.26" y="22.17" width="16.92" height="17.37" rx="8.46" transform="translate(591.45 61.7) rotate(180)"/><rect class="cls-1" x="345.96" width="72.09" height="69.18" rx="34.59"/><rect class="cls-2" x="356.44" y="8.8" width="49.6" height="47.6" rx="23.8"/><rect class="cls-3" x="367.74" y="16.43" width="29.48" height="28.29" rx="14.14"/><rect class="cls-4" x="373.34" y="22.17" width="16.92" height="17.37" rx="8.46"/><rect class="cls-1" x="432.45" width="72.09" height="69.18" rx="34.59"/><rect class="cls-2" x="442.93" y="12.78" width="49.6" height="47.6" rx="23.8"/><rect class="cls-3" x="454.23" y="24.46" width="29.48" height="28.29" rx="14.14"/><rect class="cls-4" x="459.83" y="29.65" width="16.92" height="17.37" rx="8.46"/><rect class="cls-1" x="518.95" width="72.09" height="69.18" rx="34.59"/><rect class="cls-2" x="529.42" y="8.8" width="49.6" height="47.6" rx="23.8"/><rect class="cls-3" x="540.72" y="16.43" width="29.48" height="28.29" rx="14.14"/><rect class="cls-4" x="546.32" y="22.17" width="16.92" height="17.37" rx="8.46"/><rect class="cls-1" x="605.44" width="72.09" height="69.18" rx="34.59" transform="translate(1282.97 69.18) rotate(-180)"/><rect class="cls-2" x="617.45" y="8.8" width="49.6" height="47.6" rx="23.8" transform="translate(1284.5 65.19) rotate(-180)"/><rect class="cls-3" x="626.28" y="16.43" width="29.48" height="28.29" rx="14.14" transform="translate(1282.04 61.15) rotate(180)"/><rect class="cls-4" x="633.23" y="22.17" width="16.92" height="17.37" rx="8.46" transform="translate(1283.38 61.7) rotate(180)"/><rect class="cls-1" x="691.93" width="72.09" height="69.18" rx="34.59"/><rect class="cls-2" x="702.4" y="8.8" width="49.6" height="47.6" rx="23.8"/><rect class="cls-3" x="713.7" y="16.43" width="29.48" height="28.29" rx="14.14"/><rect class="cls-4" x="719.3" y="22.17" width="16.92" height="17.37" rx="8.46"/><rect class="cls-1" x="778.42" width="72.09" height="69.18" rx="34.59" transform="translate(1628.93 69.18) rotate(-180)"/><rect class="cls-2" x="790.43" y="12.78" width="49.6" height="47.6" rx="23.8" transform="translate(1630.47 73.17) rotate(180)"/><rect class="cls-3" x="799.26" y="24.46" width="29.48" height="28.29" rx="14.14" transform="translate(1628 77.21) rotate(-180)"/><rect class="cls-4" x="806.21" y="29.65" width="16.92" height="17.37" rx="8.46" transform="translate(1629.34 76.66) rotate(-180)"/><rect class="cls-1" x="864.91" width="72.09" height="69.18" rx="34.59"/><rect class="cls-2" x="875.39" y="8.8" width="49.6" height="47.6" rx="23.8"/><rect class="cls-3" x="886.68" y="16.43" width="29.48" height="28.29" rx="14.14"/><rect class="cls-4" x="892.29" y="22.17" width="16.92" height="17.37" rx="8.46"/></g></g></svg>